<svg width="339" height="224" viewBox="0 0 339 224" fill="none" xmlns="http://www.w3.org/2000/svg">
<path d="M13.6787 52.9348C13.6878 52.192 13.7611 51.4513 13.8978 50.7211C13.8978 49.9913 14.0438 49.2858 14.1412 48.5804C14.2385 47.8749 14.1412 47.1451 14.1412 46.4153C14.1412 45.6855 13.9465 45.0043 13.8491 44.2745C13.7517 43.5447 13.4597 42.9123 13.2406 42.2068L12.3157 40.2606L11.0501 38.5091L9.51668 36.9765C8.46099 36.0257 7.29198 35.2086 6.03613 34.5439C4.59384 33.8527 3.284 32.9141 2.16616 31.7706C1.58586 31.1639 1.12365 30.4544 0.803151 29.6785C0.584096 28.9001 0.316362 28.1216 0.170325 27.2459C-0.096163 25.635 -0.096163 23.9914 0.170325 22.3805C0.677218 19.3615 1.49281 16.4025 2.60427 13.55C3.77257 10.7524 4.38105 7.68723 7.47216 6.00869L8.32404 6.44657C8.73781 9.99826 6.5716 12.1147 5.33029 14.742C3.94344 17.338 2.89637 20.1014 2.21484 22.9644C1.88021 24.3157 1.77327 25.7134 1.89843 27.0999C1.89843 27.7811 2.1905 28.4136 2.3122 29.0947C2.56765 29.6944 2.91229 30.2521 3.33445 30.7489C4.32113 31.7505 5.47404 32.5736 6.74198 33.1816C8.10064 33.9314 9.3668 34.8377 10.5146 35.8818L12.2427 37.5604L13.6544 39.5065C14.0195 40.212 14.4089 40.9418 14.7253 41.6473C15.0417 42.3527 15.2365 43.1798 15.4312 43.9583C15.6259 44.7368 15.7232 45.5152 15.7963 46.391C15.8693 47.2667 15.7963 47.9722 15.7963 48.8236C15.7303 49.6419 15.6083 50.4547 15.4312 51.2563C15.1799 52.0048 14.8622 52.7294 14.4819 53.4214L13.6787 52.9348Z" fill="#FFC400"/>
<path d="M295.067 182.255C289.445 188.361 284.187 194.881 278.03 200.768C276.569 202.276 274.865 203.59 273.308 205.001C271.75 206.412 269.949 207.604 268.172 208.771C264.518 210.928 260.711 212.814 256.781 214.415C240.988 220.696 224.15 223.94 207.153 223.976C198.67 224.044 190.19 223.687 181.743 222.905C173.274 222.045 164.884 220.532 156.649 218.381L153.558 217.602L150.491 216.678L144.406 214.829C140.39 213.394 136.325 212.104 132.407 210.499C124.448 207.482 116.683 203.955 108.992 200.354C78.2756 185.758 48.5815 168.73 22.6356 146.836C16.1182 141.152 10.7838 134.242 6.93666 126.499C5.05073 122.569 3.80194 118.365 3.23707 114.043C3.03817 112.967 2.92423 111.878 2.89631 110.784C2.89631 109.713 2.72594 108.594 2.77462 107.548V101.175C3.08097 92.7229 4.02477 84.3063 5.59799 75.9965C6.98844 67.6344 9.69958 59.5463 13.63 52.0347L14.4819 52.424C12.0778 60.3439 10.2396 68.4244 8.98118 76.6047C7.58388 84.7863 6.62516 93.0367 6.10912 101.321L5.91441 107.573C5.91441 108.619 5.91441 109.592 5.91441 110.613C5.92292 111.631 6.00426 112.648 6.1578 113.654C6.63278 117.692 7.73309 121.631 9.41929 125.331C13.075 132.729 18.1436 139.34 24.3394 144.792C49.7011 167.027 79.2249 184.421 109.771 198.944C117.438 202.568 125.153 206.096 133.039 209.112C136.958 210.718 140.998 212.007 144.966 213.442L151.026 215.291L154.069 216.215L157.135 216.97C165.298 219.09 173.616 220.562 182.01 221.373C190.408 222.159 198.841 222.508 207.275 222.419C224.068 222.358 240.699 219.131 256.294 212.907C260.131 211.32 263.849 209.458 267.418 207.336C269.146 206.217 270.801 204.904 272.285 203.687C273.77 202.471 275.474 201.036 276.91 199.527C282.897 193.786 288.252 187.364 294.361 181.623L295.067 182.255Z" fill="#FFC400"/>
<path d="M33.1259 32.3301C33.0055 30.1978 33.194 28.0593 33.6858 25.9809C34.0022 23.8888 34.2699 21.821 34.3916 19.7289C34.5683 17.6564 34.4619 15.5695 34.0752 13.5256C33.7525 11.5504 32.7856 9.73726 31.3248 8.36837C29.7944 7.08781 27.8686 6.3746 25.8728 6.34926C23.7963 6.20784 21.7113 6.24854 19.6419 6.47089C17.5764 6.68314 15.5274 7.03259 13.5083 7.51694C11.5666 8.24569 9.46269 8.43074 7.42348 8.05212L6.91235 7.298C7.58183 6.32719 8.49279 5.54744 9.5555 5.03555C10.6182 4.52367 11.796 4.29732 12.9729 4.3788C15.1634 4.18418 17.354 4.08688 19.5445 4.1112C21.7433 4.10942 23.9394 4.26388 26.1162 4.57341C27.2429 4.74549 28.3511 5.0224 29.4264 5.40052C29.9771 5.61229 30.5002 5.89002 30.9841 6.22762C31.5024 6.50546 31.9712 6.86714 32.3714 7.298C34.0179 8.93218 35.1079 11.043 35.4869 13.331C35.8903 15.4956 36.0292 17.7011 35.9006 19.8992C35.779 22.0643 35.5356 24.205 35.2435 26.3215C35.0379 28.4317 34.5971 30.5124 33.9292 32.5248L33.1259 32.3301Z" fill="#FFC400"/>
<path d="M28.5501 26.9783C28.0155 28.062 27.1676 28.9604 26.1162 29.5569C25.103 30.2271 24.0459 30.8285 22.9521 31.3571C20.7334 32.3775 18.3945 33.1132 15.991 33.5465C13.5326 33.9971 11.0173 34.0464 8.54309 33.6924L6.66896 33.2789L4.79482 32.6464C4.17204 32.4069 3.59557 32.0612 3.09106 31.6247C2.59693 31.0168 2.36099 30.2394 2.43389 29.4596L3.11539 28.8028C3.77377 28.6031 4.482 28.6462 5.11123 28.9244C5.58568 29.1192 6.00999 29.4186 6.35254 29.8002L7.66687 30.6516L9.12724 31.3328C11.2506 32.073 13.5179 32.3063 15.7476 32.0139C18.0219 31.7209 20.2286 31.0378 22.2705 29.9948C23.2823 29.4861 24.2581 28.909 25.1913 28.2676C26.0374 27.5055 26.9984 26.8816 28.039 26.4188L28.5501 26.9783Z" fill="#FFC400"/>
<path d="M293.193 181.039C294.338 177.973 294.541 174.636 293.777 171.454C293.251 169.952 292.428 168.571 291.358 167.393C290.287 166.215 288.991 165.263 287.546 164.594C281.412 161.868 274.788 160.411 268.075 160.313C261.357 159.899 254.518 160.142 247.678 159.924C240.839 159.705 234.024 159.68 227.184 159.486C220.345 159.291 213.481 158.95 206.618 158.61C203.186 158.61 199.778 158.123 196.346 157.783L186.075 156.81C172.322 155.124 158.961 151.092 146.572 144.89C121.819 132.58 100.279 114.822 80.3202 96.066L65.4001 82.0295C60.4105 77.3831 55.3236 72.8097 50.5287 67.8714C45.5708 63.0269 41.289 57.5364 37.7992 51.5482C34.2957 45.5007 32.5115 38.6116 32.6392 31.6247H33.5885C36.2415 44.8341 43.7623 55.9513 53.06 65.682C57.6602 70.5473 62.6011 75.2667 67.5177 80.0348C72.4342 84.8028 77.2534 89.6195 82.1213 94.3388C86.9892 99.0582 91.8571 103.851 97.1144 108.327C99.6701 110.589 102.153 112.949 104.806 115.114L112.862 121.463L116.829 124.577C118.217 125.599 119.628 126.547 121.016 127.545L125.227 130.488L129.535 133.286C132.382 135.208 135.327 136.935 138.297 138.638C141.266 140.341 144.284 141.922 147.327 143.503C159.517 149.701 172.696 153.726 186.27 155.399L196.492 156.372C199.9 156.712 203.283 157.077 206.715 157.175C213.554 157.515 220.369 157.929 227.209 158.026C234.048 158.123 240.888 158.342 247.703 158.415C254.518 158.488 261.308 158.415 268.172 158.756C271.601 158.947 275.014 159.346 278.395 159.948C281.785 160.54 285.067 161.639 288.131 163.208C289.758 163.971 291.207 165.067 292.385 166.425C293.563 167.782 294.444 169.371 294.97 171.089C295.715 174.544 295.287 178.147 293.753 181.331L293.193 181.039Z" fill="#FFC400"/>
<path d="M27.747 32.3301C27.1807 32.9316 26.4918 33.4045 25.7268 33.7168C24.9966 34.106 24.2664 34.4466 23.5119 34.7871C22.0029 35.444 20.4695 36.0765 18.8874 36.6116C17.3054 37.182 15.6766 37.6134 14.0195 37.901C13.1534 38.0646 12.2685 38.1055 11.3909 38.0226C10.89 38.0632 10.3914 37.9201 9.9883 37.6202C9.58519 37.3203 9.3051 36.8839 9.20032 36.3927L9.54107 36.0521C10.275 35.976 11.0157 36.1022 11.6829 36.417C12.409 36.6312 13.166 36.7217 13.9222 36.6846C15.5262 36.6225 17.1145 36.3443 18.644 35.8575C20.2039 35.3714 21.7252 34.7697 23.1955 34.0573C23.9257 33.7168 24.6559 33.3519 25.3617 32.9626C26.0531 32.5445 26.7875 32.202 27.5523 31.9409L27.747 32.3301Z" fill="#FFC400"/>
<path d="M25.9458 37.609C25.1533 38.4193 24.1502 38.9923 23.0494 39.2632C21.981 39.6022 20.8915 39.8703 19.7879 40.066C18.6926 40.2606 17.5973 40.4553 16.5264 40.7228C15.9909 40.7228 15.4798 40.9904 14.9687 41.1364C14.7088 41.2927 14.4035 41.3562 14.1028 41.3164C13.8021 41.2766 13.5239 41.136 13.3136 40.9175V40.4553C13.4051 40.1858 13.5787 39.9518 13.8101 39.786C14.0414 39.6202 14.3189 39.531 14.6036 39.5308H16.283C17.3816 39.5201 18.4786 39.447 19.5688 39.3119C20.638 39.1785 21.6903 38.9339 22.7086 38.5821C23.1954 38.3632 23.6822 38.1929 24.1447 37.9496C24.5708 37.6154 25.0721 37.3899 25.605 37.2928L25.9458 37.609Z" fill="#FFC400"/>
<path d="M23.4875 41.3553C23.2928 41.8176 22.879 41.9392 22.5383 42.1581L21.443 42.7663C20.7128 43.1798 19.9826 43.5447 19.2281 43.934C18.4378 44.3227 17.6251 44.6638 16.7941 44.9557C16.3469 45.0837 15.8915 45.1812 15.4311 45.2476C15.2982 45.2918 15.1572 45.3061 15.0181 45.2895C14.879 45.2728 14.7454 45.2255 14.6267 45.1511C14.5081 45.0767 14.4073 44.977 14.3318 44.8591C14.2563 44.7412 14.2078 44.608 14.1898 44.4692L14.3359 44.007C14.9687 43.3258 15.1391 43.4961 15.5042 43.6421C15.8688 43.6682 16.2348 43.6682 16.5994 43.6421C17.3929 43.5986 18.1739 43.4261 18.9117 43.1312C19.6575 42.8153 20.3812 42.4495 21.0779 42.0365L22.1245 41.3797C22.4597 41.1136 22.8662 40.9528 23.2928 40.9175L23.4875 41.3553Z" fill="#FFC400"/>
<path d="M24.8993 44.907C24.6015 45.25 24.2137 45.5028 23.7797 45.6368L22.5627 46.1477L20.1287 47.1694L17.6948 48.2885C17.2673 48.4918 16.8284 48.6705 16.3805 48.8236C16.1035 48.9129 15.8055 48.9129 15.5286 48.8236C15.3309 48.8132 15.1387 48.7548 14.9688 48.6534C14.8575 48.5551 14.7843 48.4208 14.762 48.2741C14.7398 48.1273 14.7699 47.9774 14.8471 47.8506H15.3095C15.4799 47.8506 15.3095 47.8506 15.5042 47.656C15.699 47.4613 15.5042 47.364 15.5042 47.3397C15.5042 47.3154 15.7963 47.3397 15.9667 47.3397C16.3791 47.3869 16.7956 47.3869 17.208 47.3397C18.0385 47.1994 18.8536 46.9794 19.6419 46.6829C20.4695 46.391 21.2727 46.0261 22.0759 45.6855L23.2685 45.126C23.6436 44.8789 24.085 44.7516 24.5342 44.7611L24.8993 44.907Z" fill="#FFC400"/>
<path d="M19.861 26.4431C19.208 27.0821 18.3402 27.455 17.427 27.4891C16.5995 27.6351 15.7719 27.7081 14.9931 27.7811C13.338 27.9027 11.6586 27.9027 10.1252 27.7811C8.5918 27.6594 6.79068 27.7811 5.11126 27.5378C4.29291 27.4688 3.47989 27.3469 2.67731 27.1729C2.14553 27.1786 1.62278 27.0353 1.16827 26.7593C0.924872 26.6377 0.778836 26.3458 0.559781 26.0539L0.389404 25.7863C0.389404 25.7863 0.389404 25.5673 0.389404 25.4457C0.464923 25.2536 0.591084 25.0854 0.754496 24.9592L1.16827 25.1781C1.16827 25.397 1.48468 25.1781 1.5577 25.1781C1.67695 25.1436 1.80354 25.1436 1.92279 25.1781C2.19052 25.1781 2.50694 25.47 2.84769 25.616C3.58414 25.9056 4.34065 26.1413 5.11126 26.3215C6.71238 26.6777 8.34085 26.8974 9.97915 26.9783C11.5995 27.0988 13.2267 27.0988 14.847 26.9783C16.4266 26.8617 17.987 26.5596 19.4959 26.0782L19.861 26.4431Z" fill="#FFC400"/>
<path d="M243.881 184.615C237.821 185.175 231.712 186.148 225.627 186.756C219.542 187.364 213.262 186.756 207.056 186.756C194.63 186.847 182.227 185.681 170.035 183.277C145.696 178.096 121.356 172.16 98.1853 162.697C92.4655 160.264 86.7944 157.491 81.1477 154.815C75.5009 152.139 70.1219 149.001 64.8402 145.595C59.3305 142.505 54.3376 138.573 50.0418 133.943C45.8311 129.296 41.596 124.82 37.8721 119.712C34.1376 114.616 31.0855 109.055 28.7935 103.169C26.5728 97.3173 24.8547 91.2868 23.6579 85.1434C22.2207 79.0152 21.5745 72.7283 21.735 66.4361C22.1001 60.1112 23.4631 54.2728 24.169 48.1668H25.1426C26.1648 54.3701 25.2886 60.6464 25.1426 66.6064C25.1481 72.6389 25.7185 78.6576 26.8463 84.5838C27.8221 90.5685 29.329 96.4545 31.3491 102.172C33.4199 107.901 36.2525 113.326 39.7706 118.301C43.4741 123.223 47.4221 127.956 51.5996 132.483C55.6963 137.065 60.5039 140.958 65.8381 144.014C70.9738 147.42 76.4988 150.315 81.9509 153.355C87.4029 156.396 93.1227 158.732 98.7938 161.262C121.697 170.846 146.037 176.782 170.376 181.866C182.486 184.252 194.81 185.386 207.153 185.248C213.311 185.248 219.493 185.613 225.529 185.248C231.566 184.883 237.699 183.861 243.906 183.91L243.881 184.615Z" fill="#FFC400"/>
<path d="M246.826 183.204C248.687 182.384 250.653 181.828 252.668 181.55L258.607 180.285C262.623 179.555 266.517 178.29 270.46 177.22C274.403 176.149 278.273 174.787 282.094 173.376C284.017 172.671 285.989 171.965 288.033 171.43C289.051 170.978 290.168 170.79 291.278 170.883C292.389 170.977 293.457 171.349 294.386 171.965V172.914C292.72 174.08 290.723 174.677 288.69 174.617C286.713 174.854 284.754 175.22 282.824 175.712C278.906 176.733 274.865 177.706 270.898 178.704C266.931 179.701 263.012 180.966 258.972 181.745L253.009 183.083C251.056 183.66 249.033 183.963 246.997 183.983L246.826 183.204Z" fill="#FFC400"/>
<path d="M44.7359 159.826C43.0808 158.488 41.5718 157.053 39.868 155.666C38.1643 154.28 36.7039 152.869 35.1705 151.361C33.5897 149.906 32.1097 148.345 30.7407 146.69C29.3047 145.084 27.9904 143.454 26.603 141.824C23.8283 138.662 20.7859 135.646 18.0842 132.264C15.2929 128.936 13.2732 125.031 12.1697 120.831C10.9981 116.671 10.28 112.397 10.0279 108.083L9.51672 101.637C9.51672 99.4718 9.51672 97.331 9.51672 95.1903C9.51672 90.8601 9.97917 86.6273 10.3199 82.3701C10.6284 78.112 11.4455 73.906 12.7539 69.8419H13.2163C13.1848 74.085 12.7857 78.3174 12.0237 82.4917C11.3978 86.6843 10.9916 90.9067 10.8067 95.1416C10.8067 97.2824 10.5633 99.3988 10.612 101.54L10.9771 107.913C11.1558 112.182 11.8172 116.418 12.9486 120.539C14.0197 124.669 16.0267 128.498 18.8144 131.729C21.297 135.159 24.3395 138.175 27.2358 141.338C28.6475 142.968 30.0349 144.646 31.4222 146.203C32.7806 147.837 34.2441 149.381 35.8033 150.825C38.8458 153.745 42.2046 156.396 45.028 159.559L44.7359 159.826Z" fill="#FFC400"/>
<path d="M35.779 146.398C34.9028 145.255 34.0996 143.965 33.345 142.846C32.5905 141.727 31.6656 140.414 30.9111 139.27C29.2073 136.838 27.3819 134.624 25.6051 132.288C21.8629 127.689 18.6995 122.648 16.1857 117.279C13.9473 111.748 12.8304 105.827 12.8999 99.861C12.8999 96.8931 12.8999 93.9253 13.2407 91.0061C13.3079 88.0668 13.8844 85.1613 14.9444 82.4188H15.4069C15.6088 85.3327 15.4287 88.2604 14.8714 91.1277C14.4489 94.0052 14.197 96.9051 14.1169 99.8123C13.8402 105.62 14.7855 111.421 16.8916 116.841C19.3304 122.171 22.4562 127.16 26.1892 131.68C27.966 134.113 29.8158 136.302 31.5439 138.662C33.3403 140.938 34.9134 143.382 36.2414 145.96L35.779 146.398Z" fill="#FFC400"/>
<path d="M34.7811 138.905C33.5848 137.343 32.4717 135.719 31.4466 134.04L28.1607 129.175C25.9702 125.842 23.7796 122.485 21.8568 118.957C19.8155 115.413 18.198 111.641 17.0376 107.719C16.7455 106.745 16.5752 105.748 16.3561 104.751C16.1371 103.753 16.1127 102.732 15.991 101.71C15.9299 100.689 15.9299 99.6655 15.991 98.6447C16.2081 97.6303 16.5948 96.6598 17.135 95.7741H17.5974C17.7288 96.7509 17.7288 97.7409 17.5974 98.7176C17.5974 99.6664 17.5974 100.615 17.4514 101.564C17.3053 102.513 17.4514 103.486 17.5731 104.459C17.6948 105.432 17.8408 106.381 18.0355 107.329C19.008 111.235 20.5237 114.986 22.5383 118.471C24.4406 121.969 26.5287 125.364 28.7936 128.639L32.1037 133.505C33.2596 135.132 34.2696 136.858 35.1218 138.662L34.7811 138.905Z" fill="#FFC400"/>
<path d="M34.3916 132.045C33.3781 131.097 32.4572 130.054 31.6412 128.931L29.3533 125.331C27.9416 122.898 26.6273 120.32 25.3616 117.765C24.096 115.211 22.9277 112.681 21.6864 110.054C21.1074 108.721 20.6036 107.356 20.1773 105.967C19.9533 105.264 19.8143 104.538 19.7635 103.802C19.7555 103.028 19.9484 102.265 20.3234 101.588H20.7858C21.1278 102.206 21.3507 102.883 21.443 103.583C21.6377 104.215 21.6133 104.897 21.7594 105.553C22.0143 106.885 22.3723 108.194 22.8303 109.47C23.7309 112.122 24.8992 114.725 26.0675 117.328C27.2358 119.93 28.5014 122.387 29.9861 124.82L32.2984 128.348C33.2142 129.413 34.0291 130.561 34.7323 131.778L34.3916 132.045Z" fill="#FFC400"/>
<path d="M34.3916 124.066C33.1527 122.822 32.1251 121.384 31.3491 119.809C30.4729 118.276 29.7427 116.671 28.9152 115.114C28.0876 113.557 27.3331 112.024 26.4812 110.516C26.0056 109.734 25.5828 108.922 25.2156 108.083C24.9474 107.646 24.8242 107.136 24.8635 106.625C24.9028 106.114 25.1027 105.628 25.4346 105.237H25.8971C26.4025 105.89 26.7069 106.676 26.7733 107.5C26.9647 108.334 27.2336 109.148 27.5765 109.932L29.6697 114.798C30.4242 116.354 31.1544 117.96 32.1036 119.444C32.5205 120.196 32.9754 120.927 33.4667 121.633C34.0192 122.293 34.4703 123.031 34.8053 123.823L34.3916 124.066Z" fill="#FFC400"/>
<path d="M74.1136 101.904C76.7863 102.143 79.3721 102.974 81.6832 104.337C84.0084 105.595 86.2302 107.034 88.3278 108.643C90.4454 110.248 92.4899 111.927 94.4857 113.654C96.4815 115.381 98.7208 116.744 100.911 118.252C105.268 121.244 109.698 124.212 113.86 127.545C115.95 129.22 117.918 131.041 119.75 132.994C120.665 133.965 121.48 135.024 122.184 136.156L122.89 137.178L123.085 137.446C123.085 137.446 123.279 137.665 123.085 137.689L122.476 138.03C121.8 138.408 121.055 138.647 120.286 138.735C117.557 138.862 114.834 138.397 112.302 137.373C109.798 136.45 107.359 135.361 105 134.113C100.29 131.604 95.7678 128.758 91.4676 125.599C87.1615 122.475 83.0937 119.035 79.2979 115.308C77.3721 113.438 75.6431 111.376 74.1379 109.154C73.3772 108.009 72.7793 106.765 72.3611 105.456C72.1007 104.791 71.9855 104.078 72.0232 103.365C72.061 102.651 72.2509 101.954 72.5802 101.321L73.0183 101.515C72.8125 102.713 73.0366 103.945 73.6511 104.994C74.1947 106.115 74.8297 107.189 75.5496 108.205C77.0423 110.294 78.6683 112.285 80.4175 114.165C84.0503 117.96 87.9815 121.458 92.1735 124.626C96.3607 127.844 100.787 130.739 105.414 133.286C107.764 134.565 110.204 135.671 112.716 136.594C115.119 137.591 117.71 138.056 120.31 137.957C120.866 137.898 121.408 137.751 121.916 137.519H122.16C122.16 137.519 122.16 137.348 122.16 137.275L121.697 136.448C120.991 135.34 120.176 134.305 119.263 133.359C117.449 131.437 115.505 129.64 113.446 127.983C109.308 124.674 104.903 121.731 100.546 118.738C98.3557 117.255 96.1408 115.746 94.0476 114.116C91.9544 112.487 90.0072 110.735 87.914 109.251C83.9114 105.94 79.1962 103.601 74.1379 102.415L74.1136 101.904Z" fill="#FFC400"/>
<path d="M125.226 141.63C126.881 141.638 128.525 141.909 130.094 142.433C131.76 142.888 133.388 143.474 134.962 144.184C136.545 144.885 137.988 145.865 139.222 147.079C139.866 147.757 140.313 148.598 140.512 149.512C140.598 150.068 140.598 150.634 140.512 151.19C139.976 151.19 139.246 151.19 138.881 151.19C135.417 150.828 132.11 149.562 129.291 147.517C127.83 146.506 126.574 145.227 125.592 143.746C125.293 143.195 125.049 142.617 124.861 142.019L124.521 140.997C124.521 140.997 124.521 140.803 124.521 140.754H124.764H125.275H126.322H126.857C127.028 140.754 127.222 140.924 127.417 140.997C127.845 141.242 128.232 141.554 128.561 141.922L128.342 142.335C127.953 142.374 127.562 142.374 127.174 142.335C127.174 142.335 127.174 142.335 127.003 142.335C126.833 142.335 127.003 142.335 127.003 142.335C127.003 142.335 127.003 142.335 127.174 142.846C127.921 144.241 128.948 145.467 130.192 146.447C132.722 148.559 135.805 149.901 139.076 150.315C139.367 150.337 139.66 150.337 139.952 150.315C139.996 150.049 139.996 149.777 139.952 149.512C139.77 148.756 139.383 148.066 138.832 147.517C137.672 146.359 136.3 145.435 134.792 144.792C131.75 143.529 128.585 142.584 125.348 141.97L125.226 141.63Z" fill="#FFC400"/>
<path d="M281.851 179.336C279.56 180.225 277.219 180.981 274.841 181.599L267.734 183.739C262.866 185.126 258.169 186.513 253.301 187.607C248.446 188.74 243.503 189.456 238.527 189.748C236.093 189.967 233.659 190.162 231.225 190.454C228.813 190.874 226.37 191.085 223.923 191.086L223.777 190.624C226.011 189.398 228.531 188.785 231.079 188.848C233.513 188.678 235.947 188.629 238.527 188.532C243.442 188.473 248.337 187.894 253.13 186.805C257.998 185.783 262.866 184.372 267.515 182.985C272.164 181.599 276.934 179.871 281.729 178.898L281.851 179.336Z" fill="#FFC400"/>
<path d="M274.549 184.202C273.189 184.89 271.772 185.459 270.314 185.904L265.981 187.437L257.244 190.454L252.814 191.889L248.36 193.202L243.857 194.321C242.347 194.759 240.743 194.759 239.232 194.321V193.859C240.562 193.061 242.087 192.648 243.638 192.667L248.141 191.962L252.619 190.94L257.049 189.675C259.994 188.751 262.89 187.729 265.787 186.683L270.095 185.102C271.516 184.535 272.981 184.087 274.476 183.764L274.549 184.202Z" fill="#FFC400"/>
<path d="M271.288 189.87C270.463 190.314 269.577 190.634 268.659 190.818L265.957 191.573L260.627 193.494C258.85 194.151 257.098 194.881 255.345 195.611L252.668 196.584C252.237 196.836 251.755 196.987 251.257 197.025C250.76 197.063 250.26 196.987 249.796 196.803V196.341C250.087 195.964 250.454 195.652 250.874 195.426C251.293 195.2 251.755 195.064 252.23 195.027L254.956 194.467C256.757 193.932 258.582 193.373 260.359 192.765L265.714 190.867L268.44 190.064C269.332 189.738 270.267 189.541 271.215 189.48L271.288 189.87Z" fill="#FFC400"/>
<path d="M270.168 194.321C269.725 194.726 269.19 195.018 268.61 195.173L266.955 195.83C265.86 196.268 264.765 196.705 263.669 197.192C262.574 197.679 261.381 197.897 260.262 198.311L258.558 198.943C258.297 199.147 257.976 199.257 257.645 199.257C257.315 199.257 256.993 199.147 256.733 198.943V198.457C256.855 198.148 257.071 197.886 257.35 197.707C257.63 197.528 257.959 197.441 258.29 197.46L260.018 197.216C261.187 197.046 262.452 196.827 263.499 196.559C264.546 196.292 265.665 195.684 266.761 195.222L268.367 194.54C268.894 194.259 269.475 194.093 270.071 194.054L270.168 194.321Z" fill="#FFC400"/>
<path d="M330.311 99.0825C326.027 106.381 322.644 113.946 318.482 121.122C317.533 122.971 316.291 124.626 315.22 126.401C314.149 128.177 312.786 129.734 311.423 131.267C308.586 134.295 305.527 137.109 302.272 139.684C291.542 148.067 279.558 154.708 266.76 159.364C267.713 159.489 268.656 159.676 269.584 159.924C281.691 155.291 293.044 148.889 303.27 140.924C306.594 138.28 309.726 135.402 312.64 132.313C314.003 130.707 315.293 129.004 316.535 127.277C317.776 125.55 318.969 123.774 319.894 121.901C324.056 114.603 327.195 106.867 330.992 99.4474L330.311 99.0825Z" fill="#FFC400"/>
<path d="M27.9659 4.57341L28.2337 5.01129C28.6238 5.12356 29.0059 5.26172 29.3776 5.42484C31.1693 6.37453 32.5978 7.88784 33.4423 9.73066C34.3758 11.5878 35.0631 13.5587 35.4868 15.5934C35.9493 17.6368 36.2657 19.7289 36.5334 21.821C36.6371 23.9446 37.047 26.0421 37.7504 28.0486L38.5536 27.927C38.643 25.8079 38.4879 23.6856 38.0912 21.6021C37.7748 19.4857 37.434 17.3692 36.9472 15.2528C36.4574 13.1046 35.7139 11.0223 34.7323 9.04952C33.7176 6.98228 32.0843 5.28189 30.0591 4.18418C29.5524 3.88851 29.002 3.67503 28.4284 3.55169C27.9036 3.3092 27.3459 3.14526 26.7733 3.06516C27.2256 3.52211 27.6256 4.02798 27.9659 4.57341Z" fill="#FFC400"/>
<path d="M328.85 98.7906C329.113 95.5322 328.393 92.2698 326.782 89.4248C325.855 88.1273 324.677 87.0283 323.319 86.1927C321.96 85.3571 320.448 84.8018 318.871 84.5595C312.241 83.6472 305.495 84.0774 299.035 85.8245C292.463 87.3084 285.94 89.4248 279.344 91.1034C272.748 92.7819 266.152 94.6551 259.507 96.3823C252.863 98.1095 246.194 99.642 239.525 101.248C236.19 102.075 232.807 102.683 229.424 103.315L219.274 105.213C205.554 107.422 191.555 107.241 177.897 104.678C150.905 99.7393 125.153 88.6221 100.838 76.1182L82.5837 66.7524C76.5232 63.6629 70.414 60.695 64.3778 57.2893C58.2719 53.9977 52.6322 49.9072 47.6079 45.126C42.5518 40.2825 38.916 34.1503 37.0933 27.3918L37.9938 27.0513C44.2004 38.9227 54.4716 47.5586 66.0329 54.4917C71.8013 57.9461 77.8619 61.0356 83.8737 64.2224C89.8856 67.4092 95.8974 70.742 101.958 73.9531C108.018 77.1642 114.128 80.3753 120.213 83.2459C123.328 84.7055 126.346 86.2867 129.486 87.6247L139.003 91.4926L143.87 93.4144C145.477 94.0226 147.108 94.5334 148.738 95.1173L153.606 96.7715L158.474 98.2798C161.736 99.3258 165.07 100.177 168.38 101.004C171.69 101.831 175.049 102.488 178.408 103.145C191.82 105.692 205.573 105.897 219.055 103.753L229.156 101.856C232.515 101.223 235.898 100.639 239.208 99.788C245.877 98.2311 252.546 96.7472 259.142 94.9227C265.738 93.0982 272.358 91.444 278.93 89.6438C285.502 87.8436 292 85.8245 298.694 84.2919C302.037 83.5121 305.427 82.9514 308.843 82.6134C312.299 82.2079 315.797 82.3392 319.212 83.0026C320.988 83.2822 322.685 83.9312 324.195 84.9076C325.704 85.8839 326.992 87.1659 327.974 88.6707C329.649 91.7883 330.24 95.3738 329.654 98.8636L328.85 98.7906Z" fill="#FFC400"/>
<path d="M127.685 133.967C130.605 134.429 133.526 134.867 136.447 135.256C161.346 137.932 186.416 136.911 211.193 135.135C223.566 134.073 235.798 131.758 247.703 128.226C253.666 126.547 259.653 125.185 265.495 123.02C271.336 120.855 276.788 118.155 282.532 115.892L282.289 115.138C276.35 116.817 270.679 119.298 265.008 121.512C259.337 123.725 253.301 125.039 247.362 126.693C235.541 130.239 223.39 132.57 211.096 133.651C186.416 135.475 161.395 136.497 136.666 133.651C132.893 133.116 129.121 132.507 125.348 131.899L127.685 133.967Z" fill="#FFC400"/>
<path d="M284.942 113.727C286.499 112.427 288.227 111.346 290.078 110.516L295.432 107.67C299.083 105.87 302.491 103.559 305.971 101.418C309.452 99.2771 312.811 97.0148 316.072 94.5091C317.727 93.2928 319.431 92.0765 321.256 90.9818C322.115 90.2734 323.137 89.791 324.229 89.5785C325.322 89.3661 326.45 89.4303 327.512 89.7654L327.731 90.6898C326.451 92.258 324.702 93.3749 322.741 93.8766C320.907 94.6595 319.127 95.5615 317.411 96.5769C313.93 98.6447 310.304 100.688 306.774 102.756C303.245 104.824 299.813 107.086 296.162 108.959L290.808 111.903C289.077 112.946 287.221 113.763 285.283 114.335L284.942 113.727Z" fill="#FFC400"/>
<path d="M96.4329 83.4648C99.0374 82.8814 101.739 82.8814 104.343 83.4648C106.937 84.0676 109.476 84.8812 111.937 85.8975C114.371 86.8462 116.805 87.8923 119.239 88.987C121.673 90.0817 124.107 90.7871 126.687 91.6142C131.701 93.2928 136.763 94.9227 141.704 96.9661C144.172 97.9946 146.564 99.1978 148.86 100.566C150.041 101.266 151.15 102.081 152.17 102.999L153.144 103.778L153.412 103.997C153.412 103.997 153.655 104.142 153.412 104.24L152.9 104.702C152.366 105.261 151.719 105.7 151.002 105.991C148.417 106.888 145.666 107.204 142.946 106.916C140.27 106.726 137.611 106.352 134.987 105.797C129.765 104.7 124.632 103.22 119.628 101.369C114.6 99.5746 109.718 97.3949 105.025 94.8497C102.654 93.5991 100.42 92.1073 98.3557 90.3979C97.3102 89.5065 96.3928 88.4751 95.6297 87.3327C95.2072 86.7368 94.9244 86.0534 94.8022 85.3333C94.68 84.6131 94.7216 83.8747 94.9239 83.1729H95.3863C95.5223 84.3829 96.0726 85.5088 96.9441 86.3597C97.7918 87.2363 98.7029 88.0494 99.6701 88.7923C101.692 90.39 103.823 91.845 106.047 93.1468C110.589 95.783 115.334 98.0526 120.237 99.934C125.151 101.867 130.203 103.428 135.352 104.605C137.925 105.183 140.536 105.582 143.165 105.797C145.759 106.143 148.397 105.935 150.905 105.189C151.414 104.974 151.889 104.687 152.316 104.337L152.535 104.118C152.535 104.118 152.535 104.118 152.365 103.924L151.805 103.486C150.776 102.61 149.659 101.843 148.471 101.199C146.198 99.8464 143.831 98.6594 141.388 97.6472C136.52 95.6038 131.433 93.9983 126.565 92.4413C124.131 91.6142 121.527 90.7871 119.069 89.8141C116.61 88.841 114.201 87.6976 111.767 86.7489C107.001 84.6717 101.82 83.7226 96.6277 83.9757L96.4329 83.4648Z" fill="#FFC400"/>
<path d="M156.551 107.475C158.177 106.995 159.872 106.79 161.565 106.867C163.26 106.855 164.953 106.977 166.628 107.232C168.338 107.455 169.989 107.999 171.496 108.838C172.287 109.289 172.943 109.944 173.394 110.735C173.637 111.244 173.809 111.785 173.905 112.341C173.388 112.528 172.86 112.682 172.323 112.803C168.912 113.413 165.4 113.102 162.149 111.903C160.475 111.393 158.913 110.567 157.549 109.47C157.102 109.02 156.695 108.532 156.332 108.01L155.773 107.037C155.773 107.037 155.626 106.867 155.651 106.818H155.894H156.405L157.428 106.599H157.939H158.547C159.025 106.699 159.48 106.889 159.886 107.159V107.621C159.515 107.755 159.132 107.853 158.742 107.913C158.742 107.913 158.742 107.913 158.572 107.913C158.401 107.913 158.572 107.913 158.572 107.913C158.572 107.913 158.572 107.913 158.888 108.351C159.993 109.483 161.318 110.378 162.782 110.978C165.792 112.309 169.123 112.74 172.372 112.219C172.662 112.17 172.947 112.097 173.224 112C173.19 111.732 173.099 111.475 172.956 111.246C172.569 110.566 172.006 110.003 171.325 109.616C169.892 108.833 168.323 108.33 166.701 108.132C163.464 107.812 160.202 107.812 156.965 108.132L156.551 107.475Z" fill="#FFC400"/>
<path d="M317.508 100.299C315.547 101.785 313.508 103.166 311.399 104.434L305.168 108.448C300.982 111.124 296.747 113.752 292.366 116.16C288.014 118.626 283.453 120.702 278.736 122.363C276.302 123.263 274.111 124.139 271.848 125.112C269.662 126.17 267.39 127.041 265.057 127.715L264.789 127.301C266.591 125.53 268.821 124.256 271.263 123.604C273.697 122.752 275.985 122.023 278.322 121.171C283.098 119.777 287.709 117.868 292.074 115.479C296.479 113.046 300.69 110.613 304.852 107.816C309.014 105.018 313.03 102.245 317.387 99.9583L317.508 100.299Z" fill="#FFC400"/>
<path d="M311.837 107.037C310.724 108.085 309.519 109.03 308.235 109.859L304.511 112.535L296.941 117.814L293.096 120.417L289.177 122.85L285.161 125.282C283.829 126.131 282.287 126.595 280.707 126.62L280.537 126.182C281.584 125.015 282.944 124.171 284.455 123.75L288.569 121.828L292.609 119.59L296.503 117.157C299.083 115.454 301.59 113.654 304.073 111.854L307.772 109.154C308.977 108.227 310.264 107.413 311.618 106.721L311.837 107.037Z" fill="#FFC400"/>
<path d="M310.279 113.362C309.609 114.02 308.846 114.577 308.016 115.016L305.582 116.476L300.982 119.785C299.473 120.928 297.964 122.096 296.503 123.312L294.069 124.99C293.716 125.34 293.293 125.61 292.827 125.782C292.361 125.954 291.863 126.024 291.368 125.988L291.149 125.55C291.332 125.095 291.612 124.685 291.969 124.349C292.326 124.013 292.752 123.759 293.218 123.604L295.651 122.29C297.234 121.293 298.816 120.247 300.349 119.176L304.973 115.844L307.407 114.335C308.152 113.784 308.972 113.342 309.841 113.022L310.279 113.362Z" fill="#FFC400"/>
<path d="M310.377 117.96C310.066 118.474 309.631 118.901 309.111 119.201L307.699 120.295C306.75 121.025 305.825 121.755 304.9 122.533C303.975 123.312 302.904 123.823 301.931 124.528L300.495 125.623C300.286 125.879 299.997 126.057 299.675 126.128C299.352 126.198 299.015 126.158 298.718 126.012L298.499 125.599C298.526 125.265 298.659 124.949 298.878 124.695C299.096 124.441 299.39 124.264 299.716 124.188L301.322 123.482C302.393 122.996 303.44 122.46 304.462 121.877C305.411 121.171 306.336 120.441 307.237 119.712L308.6 118.593C309.021 118.18 309.528 117.864 310.085 117.668L310.377 117.96Z" fill="#FFC400"/>
<path d="M338.318 25.6403C335.763 33.5951 334.205 41.8175 331.747 49.7724C331.236 51.7672 330.408 53.6646 329.751 55.6351C329.094 57.6056 328.096 59.4301 327.147 61.2546C325.072 64.8404 322.729 68.264 320.137 71.4961C316.745 75.7447 313.06 79.7521 309.111 83.4891C309.729 83.572 310.339 83.7021 310.937 83.8784C314.628 80.3032 318.084 76.4921 321.281 72.4692C323.974 69.1706 326.415 65.6739 328.583 62.0087C329.581 60.1355 330.432 58.1651 331.26 56.2189C332.088 54.2728 332.793 52.278 333.329 50.2346C335.763 42.1581 337.174 33.9114 339.122 25.9079L338.318 25.6403Z" fill="#FFC400"/>
<path d="M37.1907 21.894C36.033 20.0871 35.1473 18.12 34.562 16.0556C33.8518 14.0768 33.0394 12.1362 32.1281 10.2415C31.2876 8.34317 30.1812 6.57394 28.8423 4.98697C27.6147 3.41829 25.9036 2.29814 23.9744 1.80017C22.0209 1.43378 20.0009 1.75166 18.2546 2.70026C16.349 3.56056 14.5313 4.60337 12.8269 5.81407C11.1251 7.00937 9.49932 8.30931 7.959 9.70634C6.61868 11.2873 4.86633 12.4661 2.89639 13.1121L2.06885 12.6742C2.17903 11.4972 2.59378 10.3692 3.27231 9.401C3.95084 8.43279 4.86979 7.65773 5.93882 7.15204C7.76428 5.93571 9.63842 4.71937 11.5369 3.74631C13.4634 2.67224 15.4644 1.73733 17.5244 0.948739C18.5863 0.526608 19.6867 0.208861 20.8102 -1.55345e-06C21.4003 -0.0722905 21.997 -0.0722905 22.587 -1.55345e-06C23.1726 -0.0166255 23.7569 0.0656175 24.3151 0.243265C26.5428 0.871535 28.5176 2.18168 29.9619 3.98957C31.3706 5.68004 32.5567 7.54407 33.4911 9.53605C34.4436 11.4698 35.2966 13.451 36.0467 15.4718C36.8975 17.4055 37.5263 19.4295 37.9209 21.5048L37.1907 21.894Z" fill="#FFC400"/>
<path d="M336.761 25.689C336.285 22.4517 334.843 19.4333 332.623 17.0287C331.435 15.9647 330.045 15.1513 328.535 14.6372C327.025 14.123 325.427 13.9187 323.836 14.0365C317.167 14.6422 310.687 16.5778 304.779 19.7289C298.694 22.6481 292.828 26.1512 286.767 29.2893C280.707 32.4275 274.719 35.7116 268.635 38.8497C262.55 41.9878 256.465 45.0287 250.234 48.0695C247.192 49.6264 244.003 50.9644 240.863 52.3267L231.395 56.4622C218.554 61.6675 204.91 64.6218 191.065 65.1955C163.415 66.4848 135.936 61.4248 109.43 54.662L89.5692 49.6507C82.9488 47.9965 76.2798 46.4639 69.7082 44.4935C63.0175 42.692 56.5994 40 50.626 36.49C44.6338 32.8736 39.7505 27.6815 36.5092 21.4804L37.288 20.9453C46.0259 31.2111 57.9766 37.2441 70.7791 41.3797C77.1804 43.4718 83.7764 45.126 90.3724 46.9018C96.9684 48.6777 103.54 50.5751 110.16 52.3023C116.781 54.0295 123.352 55.854 130.046 57.1677C133.38 57.8975 136.69 58.7489 140.049 59.3571L150.174 61.0113L155.237 61.8141C156.941 62.0573 158.645 62.179 160.348 62.3736L165.46 62.9088L170.571 63.2737C174.003 63.5656 177.41 63.6629 180.842 63.7115C184.274 63.7602 187.682 63.7115 191.089 63.5413C204.776 63.0527 218.271 60.1625 230.957 55.0026L240.279 51.086C243.419 49.6994 246.559 48.3857 249.601 46.8045C255.759 43.788 261.917 40.8445 267.953 37.609C273.989 34.3736 280.123 31.2598 286.037 28C291.952 24.7402 297.915 21.3588 304.097 18.2693C307.19 16.779 310.368 15.4712 313.614 14.3527C316.898 13.2019 320.335 12.546 323.812 12.4066C325.594 12.3027 327.377 12.5666 329.052 13.1819C330.727 13.7971 332.258 14.7505 333.548 15.9826C335.883 18.644 337.263 22.0088 337.467 25.543L336.761 25.689Z" fill="#FFC400"/>
<path d="M168.478 102.756C189.379 99.0896 210.009 94.0182 230.227 87.576C242.066 83.7848 253.485 78.7878 264.302 72.6638C269.754 69.6959 275.279 67.02 280.488 63.5899C285.696 60.1599 290.394 56.2919 295.408 52.8619L295.019 52.1807C289.713 55.2704 284.57 58.632 279.612 62.252C274.549 65.5847 268.975 68.3093 263.572 71.2528C252.841 77.3302 241.512 82.2866 229.764 86.0434C208.942 92.8133 187.643 98.0175 166.044 101.613C166.937 101.786 167.773 102.179 168.478 102.756Z" fill="#FFC400"/>
<path d="M297.306 50.0886C298.532 48.4659 299.974 47.0174 301.59 45.7828C303.124 44.4692 304.633 43.1312 306.19 41.8176C309.33 39.2389 312.105 36.2224 315.026 33.3762C317.946 30.53 320.721 27.5378 323.35 24.3753C324.683 22.7729 326.097 21.2384 327.585 19.7776C328.261 18.8822 329.155 18.1735 330.181 17.7182C331.207 17.2628 332.332 17.0758 333.45 17.1746L333.889 18.0261C332.991 19.8466 331.532 21.3305 329.727 22.2589C328.117 23.4278 326.588 24.7038 325.151 26.0782C322.206 28.8758 319.139 31.6733 316.169 34.4709C313.2 37.2685 310.352 40.285 307.237 42.9123L302.661 46.9748C301.228 48.4456 299.588 49.6995 297.793 50.6968L297.306 50.0886Z" fill="#FFC400"/>
<path d="M106.801 62.8115C109.228 61.6956 111.871 61.1307 114.541 61.1572C117.189 61.1239 119.835 61.3111 122.452 61.7168C125.08 62.0817 127.685 62.5682 130.265 63.0791C132.845 63.5899 135.473 63.7359 138.102 63.9791C143.384 64.49 148.69 64.9522 153.947 65.828C156.582 66.2878 159.184 66.9217 161.736 67.7255C163.032 68.1223 164.288 68.6437 165.484 69.2824L166.604 69.8175L166.92 69.9635C166.92 69.9635 167.188 69.9635 167.066 70.1581L166.677 70.742C166.273 71.4052 165.744 71.9836 165.119 72.4448C162.793 73.8744 160.186 74.787 157.476 75.1208C154.826 75.5378 152.151 75.7735 149.469 75.8262C144.132 75.9248 138.796 75.632 133.502 74.9505C128.214 74.3223 122.982 73.2895 117.852 71.861C115.263 71.1662 112.752 70.2126 110.355 69.0148C109.138 68.3593 108.016 67.5409 107.021 66.5821C106.458 66.1317 106.002 65.562 105.686 64.9142C105.371 64.2663 105.203 63.5564 105.195 62.8358H105.658C106.037 64.0228 106.832 65.0333 107.897 65.682C108.924 66.3917 110.007 67.0181 111.134 67.5552C113.497 68.6691 115.937 69.6121 118.436 70.3771C123.447 71.9268 128.575 73.0738 133.77 73.8071C138.989 74.5977 144.262 74.988 149.542 74.9748C152.181 74.9555 154.816 74.7523 157.428 74.3666C160.008 74.0896 162.499 73.2598 164.729 71.934C165.178 71.609 165.573 71.2149 165.898 70.7663L166.068 70.523C166.068 70.523 165.922 70.523 165.873 70.3771L165.216 70.0608C164.061 69.4384 162.846 68.9331 161.59 68.5526C159.074 67.7456 156.504 67.1196 153.898 66.6794C148.665 65.8036 143.384 65.3414 138.126 64.8549C135.473 64.6116 132.82 64.3684 130.192 63.9548C127.563 63.5413 125.032 62.9818 122.427 62.6169C117.336 61.6368 112.087 61.8533 107.094 63.2493L106.801 62.8115Z" fill="#FFC400"/>
<path d="M170.79 72.7611C172.306 71.9198 173.951 71.3362 175.658 71.0339C177.305 70.6387 178.982 70.3783 180.672 70.2554C182.397 70.0833 184.14 70.2401 185.807 70.7176C186.678 70.9819 187.461 71.478 188.071 72.1529C188.422 72.5885 188.709 73.0718 188.923 73.5882C188.436 73.8558 187.852 74.2693 187.487 74.4153C184.288 75.7742 180.788 76.2692 177.337 75.8506C175.57 75.6673 173.853 75.1558 172.275 74.3423C171.742 74.0134 171.244 73.6303 170.79 73.199L170.011 72.4448C170.011 72.4448 169.841 72.3232 169.841 72.2745H170.084L170.547 72.0556L171.496 71.6177L171.958 71.3988C172.161 71.3869 172.364 71.3869 172.567 71.3988C173.062 71.4182 173.552 71.4999 174.027 71.6421V72.1286C173.701 72.3344 173.36 72.5134 173.005 72.6638C173.005 72.6638 173.005 72.6638 172.81 72.6638C172.615 72.6638 172.81 72.6638 172.81 72.7854C172.81 72.907 172.81 72.7854 173.2 73.1503C174.54 74.0008 176.038 74.5718 177.605 74.8288C180.871 75.4697 184.254 75.1485 187.341 73.9044C187.614 73.7933 187.875 73.6547 188.12 73.4909C188.007 73.2443 187.859 73.015 187.682 72.8097C187.146 72.2455 186.476 71.8268 185.734 71.5934C184.151 71.1545 182.499 71.0224 180.866 71.2042C177.557 71.57 174.294 72.2793 171.131 73.3206L170.79 72.7611Z" fill="#FFC400"/>
<path d="M326.149 29.7029C324.572 31.5879 322.889 33.3828 321.111 35.0791C319.407 36.8549 317.679 38.6308 315.951 40.3823C312.47 43.934 308.941 47.4613 305.193 50.7698C301.512 54.1574 297.538 57.2103 293.315 59.8923C291.27 61.2789 289.202 62.6412 287.23 64.1008C285.292 65.6182 283.223 66.9613 281.048 68.1147L280.707 67.7741C282.06 65.6332 283.948 63.8811 286.183 62.6898C288.277 61.3519 290.418 60.1112 292.536 58.7976C296.837 56.3495 300.867 53.4549 304.56 50.1616C308.332 46.9018 311.862 43.3745 315.293 39.8228C318.725 36.2711 322.011 32.5248 325.735 29.3623L326.149 29.7029Z" fill="#FFC400"/>
<path d="M322.011 37.4874C321.163 38.7483 320.202 39.929 319.139 41.0148L316.096 44.4692L309.914 51.3779L306.677 54.7593L303.416 58.0678L300.032 61.2302C298.92 62.3516 297.523 63.1503 295.992 63.5413L295.724 63.152C296.49 61.7962 297.631 60.6898 299.01 59.9652L302.588 57.1677L306.02 54.1025L309.281 50.8427C311.399 48.6047 313.443 46.2937 315.464 43.9826L318.457 40.5039C319.419 39.3156 320.486 38.2165 321.646 37.2198L322.011 37.4874Z" fill="#FFC400"/>
<path d="M321.914 44.0313C321.41 44.828 320.786 45.542 320.064 46.1477L318.068 48.1182L314.344 52.3753C313.127 53.8106 311.91 55.2945 310.766 56.8028L308.892 58.9435C308.632 59.3734 308.278 59.7389 307.856 60.0128C307.435 60.2866 306.957 60.4616 306.458 60.5248L306.142 60.1599C306.206 59.6619 306.382 59.1849 306.656 58.7639C306.93 58.3429 307.295 57.9886 307.724 57.7272L309.841 55.9027C311.18 54.5647 312.47 53.2024 313.736 51.7915L317.508 47.5343L319.504 45.5152C320.109 44.7925 320.824 44.1687 321.621 43.6664L321.914 44.0313Z" fill="#FFC400"/>
<path d="M323.058 48.4831C322.857 49.0498 322.532 49.565 322.108 49.9913L320.989 51.3536C320.234 52.278 319.48 53.2024 318.749 54.1512C318.019 55.0999 317.094 55.8784 316.316 56.7785L315.147 58.1651C315.001 58.4638 314.758 58.7038 314.457 58.8454C314.156 58.9869 313.815 59.0216 313.492 58.9435L313.2 58.5786C313.156 58.2494 313.217 57.9148 313.375 57.6222C313.532 57.3297 313.777 57.094 314.076 56.9487L315.488 55.9027C316.413 55.1972 317.313 54.4188 318.19 53.6403C319.066 52.8619 319.674 51.8158 320.405 50.8914L321.475 49.5048C321.793 49.0048 322.217 48.5811 322.717 48.2641L323.058 48.4831Z" fill="#FFC400"/>
</svg>
