<svg width="376" height="376" viewBox="0 0 376 376" fill="none" xmlns="http://www.w3.org/2000/svg">
<path d="M250.668 146.14V62.6679H275.732V37.6H100.264V62.6679H125.332V146.144C102.43 153.036 87.7321 163.609 87.7321 175.468C87.7321 196.227 132.615 213.068 188 213.068C243.362 213.068 288.268 196.227 288.268 175.468C288.268 163.605 273.566 153.043 250.668 146.14ZM225.6 62.6679V140.635C217.693 139.425 209.297 138.601 200.532 138.199V62.6679H225.6ZM150.4 62.6679H175.464V138.199C166.707 138.601 158.307 139.425 150.4 140.624V62.6679Z" fill="#49180D"/>
<path d="M188 231.868C150.08 231.868 110.371 224.096 87.7321 207.668V225.6C87.7321 235.673 98.3691 244.802 115.582 251.559L100.264 338.4H125.719L139.793 258.575C154.092 261.512 170.523 263.2 188 263.2C205.476 263.2 221.893 261.512 236.199 258.564L250.277 338.4H275.736L260.414 251.559C277.635 244.802 288.272 235.669 288.272 225.6V207.668C265.625 224.096 225.92 231.868 188 231.868Z" fill="#49180D"/>
</svg>
