<svg width="297" height="192" viewBox="0 0 297 192" fill="none" xmlns="http://www.w3.org/2000/svg">
<g style="mix-blend-mode:multiply" opacity="0.2">
<path d="M295.521 23.8493C292.535 18.1102 281.992 14.1883 264.181 12.1553C254.413 11.0579 236.404 10.0504 225.376 15.7535C175.002 41.9478 133.983 83.0925 99.2072 121.179L79.8852 86.6006C78.518 84.1899 75.3516 78.5049 47.5021 76.238C37.7331 75.4285 20.1203 74.7628 11.9885 79.3144C10.6501 79.9625 9.46004 80.8801 8.49292 82.0096C7.5258 83.1392 6.80251 84.4565 6.3684 85.8787C5.93429 87.301 5.79873 88.7976 5.97021 90.2747C6.14169 91.7518 6.61652 93.1776 7.36492 94.4626L55.7238 181.07C57.8107 184.812 62.4343 188.59 81.8642 190.785C84.5628 191.09 88.1789 191.45 92.1908 191.702C104.784 192.458 121.39 192.17 126.895 186.071C132.85 179.504 138.877 172.722 144.724 166.173C188.099 117.599 232.878 67.2247 290.646 37.2163C296.781 34.05 297.734 28.095 295.521 23.8493Z" fill="black"/>
</g>
<path d="M285.267 10.4282C281.938 4.88711 271.18 1.59482 253.261 0.659308C243.456 0.137579 225.412 0.227533 214.761 6.61421C166.079 35.813 127.615 79.3684 95.2135 119.506L73.8226 86.1329C72.3293 83.7941 68.8212 78.325 40.9716 77.7313C31.1667 77.5334 13.5539 77.9292 5.70997 82.9665C4.40969 83.6906 3.2732 84.6758 2.37188 85.8601C1.47055 87.0444 0.823874 88.4023 0.472459 89.8485C0.121045 91.2947 0.0724893 92.798 0.329842 94.2638C0.587195 95.7297 1.1449 97.1265 1.96791 98.3665L55.4901 181.879C57.8109 185.477 62.6864 189.075 82.1702 190.011C84.8868 190.137 88.5029 190.281 92.5329 190.281C105.126 190.281 121.714 188.985 126.841 182.563C132.364 175.636 137.995 168.512 143.428 161.622C183.781 110.42 225.502 57.4918 281.255 24.0472C287.138 20.521 287.731 14.5301 285.267 10.4282Z" fill="white"/>
<path d="M218.953 13.6126C169.101 43.513 130.655 88.0939 94.4579 133.484C85.3067 119.164 76.1375 104.849 66.9502 90.5406C62.8843 84.1899 2.05796 83.3443 8.84044 93.9768L62.3626 177.471C66.2126 183.498 115.471 183.714 120.454 177.471C166.78 119.506 212.297 55.8906 277.063 17.0488C287.678 10.6801 235.631 3.62777 218.953 13.6126Z" fill="#23B502"/>
</svg>
