<svg width="220" height="220" viewBox="0 0 220 220" fill="none" xmlns="http://www.w3.org/2000/svg">
<path d="M219.375 34.9722C218.781 35.2364 218.233 35.629 217.774 36.1476L184.462 73.881C183.962 74.4473 183.333 75.1089 182.581 75.8607C172.249 86.4765 158.05 81.4338 148.652 71.5473L148.601 71.4941L148.548 71.4435C138.662 62.0455 133.619 47.8461 144.235 37.5142C144.987 36.7627 145.648 36.1334 146.215 35.6335L185.123 0.720581L140.007 28.6175C139.019 29.4897 138.214 30.2375 137.586 30.8657C129.488 38.9643 126.527 47.4371 127.063 55.6405C127.588 63.6734 123.993 86.0809 118.902 96.996C119.623 97.8128 120.285 98.5323 120.891 99.1577L120.914 99.1817L120.938 99.2048C121.563 99.8101 122.283 100.473 123.099 101.194C134.015 96.1023 156.422 92.5073 164.455 93.0326C172.658 93.5687 181.131 90.6079 189.23 82.5095L191.478 80.0889L219.375 34.9721L219.375 34.9722Z" fill="#5D9CEC"/>
<path d="M209.045 24.9487L157.03 83.6987C155.194 85.5345 152.217 85.5345 150.381 83.6987C148.545 81.8629 148.545 78.886 150.381 77.0502L209.045 24.9488L209.045 24.9487Z" fill="#5D9CEC"/>
<path d="M196.632 11.1575L142.32 68.9891C140.484 70.8249 137.507 70.8249 135.672 68.9891C133.836 67.1531 133.836 64.1763 135.672 62.3403L196.632 11.1575L196.632 11.1575Z" fill="#5D9CEC"/>
<path d="M119.986 92.9275C121.822 91.0917 122.579 93.3109 124.415 95.1467C126.251 96.9827 128.47 97.8935 126.635 99.7292L107.568 118.451C89.7183 136.301 104.018 137.504 82.3297 159.331L27.4276 214.692H27.4273C24.3699 217.75 20.3442 219.279 16.322 219.279C12.2995 219.279 8.27409 217.75 5.2166 214.693L5.21635 214.692L5.21614 214.692C2.15842 211.635 0.629448 207.609 0.629448 203.587C0.629448 199.564 2.00548 195.539 5.06296 192.481L60.654 136.89C83.8391 113.705 82.1551 130.567 101.991 110.731L119.986 92.9275L119.986 92.9275Z" fill="#5D9CEC"/>
<path fill-rule="evenodd" clip-rule="evenodd" d="M99.0469 120.541L102.534 124.067C92.5598 136.86 101.493 140.045 82.3296 159.331L27.4274 214.692C21.3464 220.799 11.3384 220.814 5.2159 214.692C5.16238 214.639 5.11024 214.584 5.05788 214.53L99.0467 120.541L99.0469 120.541Z" fill="#CA2B03"/>
<path fill-rule="evenodd" clip-rule="evenodd" d="M95.2888 116.74L98.9719 120.464L99.0474 120.541L5.05849 214.53L5.04697 214.518C-0.877457 208.405 -0.825798 198.37 5.06333 192.481L60.6544 136.89C80.8483 116.696 82.1762 126.882 95.2887 116.74L95.2888 116.74Z" fill="#DD2C00"/>
</svg>
