<svg width="246" height="290" viewBox="0 0 246 290" fill="none" xmlns="http://www.w3.org/2000/svg">
<path d="M246 0H0V271.875H246V0Z" fill="#BCD3F0"/>
<path d="M111.611 271.875V0H97.9445V271.875H0V290H97.9445H111.611H246V271.875H111.611Z" fill="#5D9CEC"/>
<path d="M79.7162 167.958C78.5085 167.957 77.3507 167.479 76.4967 166.629C75.6427 165.78 75.1623 164.628 75.1606 163.427V120.833C75.1606 119.631 75.6406 118.479 76.4949 117.629C77.3493 116.779 78.508 116.302 79.7162 116.302C80.9244 116.302 82.0831 116.779 82.9375 117.629C83.7918 118.479 84.2718 119.631 84.2718 120.833V163.427C84.2701 164.628 83.7897 165.78 82.9357 166.629C82.0817 167.479 80.9239 167.957 79.7162 167.958Z" fill="#DB2C00"/>
<path d="M129.833 167.958C128.626 167.957 127.468 167.479 126.614 166.629C125.76 165.78 125.279 164.628 125.278 163.427V120.833C125.278 119.631 125.758 118.479 126.612 117.629C127.466 116.779 128.625 116.302 129.833 116.302C131.042 116.302 132.2 116.779 133.055 117.629C133.909 118.479 134.389 119.631 134.389 120.833V163.427C134.387 164.628 133.907 165.78 133.053 166.629C132.199 167.479 131.041 167.957 129.833 167.958Z" fill="#DB2C00"/>
<path d="M217.154 85.4956H157.932V198.777H217.154V85.4956Z" fill="#DB2C00"/>
<path d="M217.154 85.4956H157.932V124.15H217.154V85.4956Z" fill="#5D9CEC"/>
</svg>
