<svg width="337" height="337" viewBox="0 0 337 337" fill="none" xmlns="http://www.w3.org/2000/svg">
<g clip-path="url(#clip0_110_457)">
<path fill-rule="evenodd" clip-rule="evenodd" d="M168.5 -0.000366211C261.56 -0.000366211 337 75.4399 337 168.5C337 261.56 261.56 337 168.5 337C75.4401 337 0 261.559 0 168.5C0 75.4398 75.4403 -0.000366211 168.5 -0.000366211Z" fill="#81D4FA"/>
<path fill-rule="evenodd" clip-rule="evenodd" d="M247.379 146.462L434.289 333.372L430.799 336.029L243.889 149.119L247.379 146.462Z" fill="#4FC3F7"/>
<path fill-rule="evenodd" clip-rule="evenodd" d="M243.889 149.119L430.799 336.029L418.493 345.395L231.583 158.485L243.889 149.119Z" fill="#4FC3F7"/>
<path fill-rule="evenodd" clip-rule="evenodd" d="M231.583 158.485L418.493 345.396L417.106 344.181L230.196 157.271L231.583 158.485Z" fill="#4FC3F7"/>
<path fill-rule="evenodd" clip-rule="evenodd" d="M230.196 157.271L417.106 344.181V443.594L230.196 256.685V157.271Z" fill="#4FC3F7"/>
<path fill-rule="evenodd" clip-rule="evenodd" d="M230.196 256.685L417.106 443.594V447.559L230.196 260.649V256.685Z" fill="#4FC3F7"/>
<path fill-rule="evenodd" clip-rule="evenodd" d="M230.196 260.648L417.106 447.558H412.965L226.055 260.648H230.196Z" fill="#4FC3F7"/>
<path fill-rule="evenodd" clip-rule="evenodd" d="M106.804 157.27L293.713 344.181L292.326 345.396L105.416 158.485L106.804 157.27Z" fill="#4FC3F7"/>
<path fill-rule="evenodd" clip-rule="evenodd" d="M193.349 260.648L380.259 447.558H330.561L143.651 260.648H193.349Z" fill="#4FC3F7"/>
<path fill-rule="evenodd" clip-rule="evenodd" d="M143.651 260.648L330.561 447.558H313.176L126.265 260.648H143.651Z" fill="#4FC3F7"/>
<path fill-rule="evenodd" clip-rule="evenodd" d="M126.265 260.648L313.176 447.558H297.855L110.945 260.648H126.265Z" fill="#4FC3F7"/>
<path fill-rule="evenodd" clip-rule="evenodd" d="M110.945 260.648L297.855 447.558H293.713L106.803 260.648H110.945Z" fill="#4FC3F7"/>
<path fill-rule="evenodd" clip-rule="evenodd" d="M105.415 158.485L292.326 345.395L280.021 336.029L93.1113 149.119L105.415 158.485Z" fill="#4FC3F7"/>
<path fill-rule="evenodd" clip-rule="evenodd" d="M93.1112 149.119L280.021 336.029L276.532 333.372L89.6216 146.462L93.1112 149.119Z" fill="#4FC3F7"/>
<path fill-rule="evenodd" clip-rule="evenodd" d="M226.055 260.648L412.965 447.558H380.259L193.349 260.648H226.055Z" fill="#4FC3F7"/>
<path fill-rule="evenodd" clip-rule="evenodd" d="M171.111 78.6725L244.114 143.56L247.379 146.462L243.889 149.118L231.584 158.484L230.196 157.27V256.684V260.648H226.055H193.349H143.651H126.265H110.945H106.803V256.684V157.27L105.415 158.484L93.1112 149.118L89.6216 146.462L92.8864 143.56L165.888 78.6725L168.5 76.3513L171.111 78.6725Z" fill="#4FC3F7"/>
<path d="M226.055 163.7H126.266V260.648H226.055V163.7Z" fill="white"/>
<path fill-rule="evenodd" clip-rule="evenodd" d="M171.282 101.495L228.838 151.853L230.196 153.042L230.197 154.763V256.685V260.648H226.055H193.349V221.304C193.349 213.327 190.555 206.079 186.053 200.826C181.551 195.574 175.337 192.313 168.5 192.313H168.5C161.663 192.313 155.45 195.574 150.948 200.826C146.446 206.079 143.651 213.327 143.651 221.304V260.648H110.945H106.803V256.685V154.763V153.042L108.162 151.853L165.717 101.495L168.5 99.0601L171.282 101.495H171.282Z" fill="#15262E"/>
<path d="M105.415 158.484L93.1112 149.118L89.6216 146.462L92.8864 143.56L165.888 78.6725L168.5 76.3513L171.111 78.6725L244.114 143.56L247.379 146.462L243.889 149.118L231.584 158.484L174.076 108.168L168.5 103.288L105.415 158.484Z" fill="white"/>
</g>
<defs>
<clipPath id="clip0_110_457">
<rect width="337" height="337" fill="white"/>
</clipPath>
</defs>
</svg>
