<svg width="293" height="258" viewBox="0 0 293 258" fill="none" xmlns="http://www.w3.org/2000/svg">
<path d="M207.687 38.6918C202.364 37.6 197.162 35.9828 192.159 33.8641L184.559 30.9113L180.759 29.4583L178.859 28.7318L176.912 28.1224L169.124 25.7789L161.102 24.2087L153.009 23.0604L144.846 22.2402L128.426 21.045C122.961 20.7637 117.519 20.5763 112.007 20.7637C109.309 20.7637 106.612 20.9512 103.914 21.2325C101.216 21.5137 98.5424 21.748 95.8918 22.123C93.2411 22.498 90.614 23.0838 87.9633 23.3182C85.2833 23.7707 82.5616 23.9279 79.8472 23.7869L79.7534 22.9432C82.1924 21.6555 84.797 20.7093 87.4942 20.131C90.1891 19.5962 92.9158 19.2361 95.6572 19.053C98.3782 18.8186 101.123 18.5843 103.867 18.5608C106.612 18.5374 109.356 18.4202 112.1 18.5608C117.613 18.5608 123.102 18.9592 128.52 19.3811L144.94 20.9044L153.127 21.7949L161.29 22.9667L169.382 24.5603L177.311 26.9038L179.281 27.4897L181.204 28.2162L185.028 29.6692L192.651 32.5517C195.185 33.4657 197.671 34.6375 200.251 35.3171C202.832 35.9967 205.342 36.981 207.828 38.059L207.687 38.6918Z" fill="#FF8C00"/>
<path d="M214.044 40.3323C212.637 39.6995 211.229 39.0433 209.845 38.2934C208.461 37.5435 207.289 36.4889 206.022 35.5515C203.676 33.5126 201.33 31.4503 199.172 29.3411C194.791 25.0368 190.162 20.9913 185.309 17.225C180.38 13.525 174.904 10.6153 169.077 8.60078L164.691 7.03061C163.213 6.5619 161.712 6.18694 160.211 5.7651C157.265 4.82619 154.255 4.10555 151.203 3.60905L146.512 2.85911C144.966 2.54465 143.397 2.36431 141.82 2.3201C138.935 2.08575 135.839 1.85139 132.766 1.80452L128.075 2.10918C127.301 2.10918 126.526 2.10918 125.729 2.27323L123.383 2.69507L118.88 3.51531L114.493 4.87456L112.593 5.53075L110.482 6.44473L106.307 8.27269L102.366 10.6162C101.709 10.9912 101.029 11.3427 100.395 11.7411L98.5189 12.9363C97.2992 13.8034 96.0325 14.6471 94.8362 15.5611C93.6399 16.4751 92.4905 17.4594 91.2942 18.3733L89.4646 19.7091C88.8782 20.1779 88.2917 20.6466 87.6819 21.0918C86.4558 22.0294 85.1621 22.8754 83.8115 23.6229L83.1312 22.9901C83.9714 21.6665 84.8959 20.3984 85.8991 19.1936C86.851 17.9605 87.9367 16.8366 89.1362 15.8423C90.3325 14.8112 91.4819 13.8269 92.7955 12.866C94.1091 11.9052 95.4461 11.1552 96.7597 10.3116L98.7535 9.04605C99.4338 8.64765 100.161 8.31956 100.865 7.94459L105.087 5.81197L109.497 4.10119L111.702 3.23408L114.047 2.62476L118.645 1.38269L123.336 0.65619L125.682 0.304659C126.48 0.304659 127.277 0.304659 128.028 0.304659L132.719 0.117176C135.862 0.257788 138.982 0.539013 142.102 0.726496C143.679 0.819295 145.248 1.03081 146.793 1.35925L151.485 2.17949C154.577 2.74904 157.626 3.5321 160.609 4.52303C162.111 4.9683 163.635 5.34326 165.137 5.83541L169.499 7.52275C175.445 9.58743 181.038 12.5513 186.084 16.311C191.007 20.0809 195.706 24.1343 200.158 28.4505C202.503 30.5597 204.708 32.5986 207.007 34.614C208.18 35.5046 209.353 36.442 210.549 37.3794C211.745 38.3168 213.106 38.973 214.349 39.8636L214.044 40.3323Z" fill="#FF8C00"/>
<path d="M216.624 40.1917C213.833 40.9885 210.995 41.3634 208.203 42.0431C205.412 42.7227 202.574 43.2851 199.759 44.0585C194.129 45.5115 188.453 47.0348 182.706 48.1831C171.138 50.5486 159.351 51.6798 147.544 51.5578C135.639 51.5326 123.824 49.5044 112.593 45.5584C111.209 45.0194 109.849 44.3632 108.488 43.7773L106.447 42.8633C105.767 42.5352 105.134 42.1368 104.477 41.7853L100.607 39.4417L96.9708 36.817L95.1646 35.5046C94.56 35.0107 93.9806 34.4866 93.4288 33.9344C92.3733 32.8564 91.4115 31.7784 90.4732 30.6769C88.6303 28.5224 86.9597 26.2264 85.4769 23.8103V23.0604C86.3288 23.2427 87.1298 23.6108 87.8226 24.1384C88.4533 24.5437 89.0567 24.9899 89.6288 25.4743C90.7498 26.4113 91.8224 27.4047 92.8424 28.4505C93.851 29.4817 94.8128 30.5597 95.7745 31.5909C96.2671 32.1299 96.7128 32.622 97.1819 33.0439L98.8474 34.3563L102.178 37.0279L105.767 39.3714C106.377 39.7464 106.963 40.1682 107.597 40.4963L109.52 41.4572C110.81 42.0665 112.077 42.7696 113.391 43.3086C116.065 44.4112 118.798 45.3657 121.577 46.1677C124.353 47.0388 127.182 47.7354 130.045 48.2534C132.896 48.8389 135.778 49.2614 138.677 49.5189C141.582 49.851 144.503 50.0309 147.427 50.058C159.168 50.3358 170.903 49.2664 182.401 46.8707C188.124 45.699 193.73 44.1757 199.384 42.6758C202.175 41.9024 205.037 41.2697 207.875 40.6135C210.737 40.0363 213.638 39.6682 216.554 39.512L216.624 40.1917Z" fill="#FF8C00"/>
<path d="M64.8818 1.49986C69.198 5.58524 73.038 10.145 76.3288 15.0924C78.1027 17.5031 79.747 20.0064 81.2547 22.5917L83.6004 26.4351L85.6646 30.4191C88.4794 35.6921 91.2004 41.0353 93.64 46.5192C94.8832 49.2377 95.9856 51.9797 97.135 54.7919C97.7553 56.2059 98.2194 57.6832 98.519 59.1977C98.6189 59.9757 98.6189 60.7633 98.519 61.5413C98.4162 62.4837 98.0037 63.3655 97.3461 64.0489L96.5486 63.5567C96.1968 62.3615 95.6572 61.2132 95.235 59.8071C94.8128 58.4009 94.5548 57.0886 94.2029 55.6824C93.4523 52.8936 92.514 50.1048 91.5054 47.316C90.4967 44.5272 89.3943 41.7853 88.2214 39.0668C87.0486 36.3483 85.6646 33.7704 84.4449 31.0987L82.451 27.1147L80.1053 23.3182C78.568 20.755 76.8841 18.2823 75.0621 15.9126C73.2559 13.5691 71.6609 11.2255 69.6905 8.882C67.6925 6.76295 65.8944 4.46436 64.3188 2.01544L64.8818 1.49986Z" fill="#FF8C00"/>
<path d="M63.8496 0.328094C64.5444 1.66161 65.11 3.05847 65.5385 4.49959L67.2743 8.64765L69.3151 12.6785L71.6608 16.6625C74.7336 21.9121 78.1583 27.0679 80.8793 32.6923L84.9374 40.9885C86.2509 43.7773 87.588 46.5661 88.9016 49.3315C90.2152 52.0968 91.2473 55.0497 92.5139 57.8854C93.7942 60.7672 94.2489 63.9474 93.8275 67.072L92.9362 67.2595C91.0524 64.8282 89.8756 61.9254 89.5349 58.8697L86.7201 50.2454C85.5942 47.4098 84.3744 44.5741 83.2954 41.7384C82.2164 38.9027 80.9497 36.0905 79.5423 33.3251C76.7731 27.8527 73.7115 22.533 70.3706 17.389L68.0249 13.3816L65.8904 9.37415L64.0842 5.13235C63.6141 3.62703 63.2843 2.08154 63.099 0.515577L63.8496 0.328094Z" fill="#FF8C00"/>
<path d="M119.325 71.1967C117.53 70.7247 115.81 70.0071 114.212 69.064L108.934 67.283L103.421 66.2049L97.7918 65.83C95.9152 65.83 94.0387 66.0174 92.1856 66.1581C90.3325 66.2987 88.5263 66.8611 86.6967 67.2126C84.867 67.5642 83.2251 68.4313 81.5127 69.0172C80.7284 69.5711 79.8388 69.9588 78.8989 70.1562C77.9589 70.3537 76.9885 70.3569 76.0472 70.1655L75.6016 69.3687C76.1273 68.4982 76.8358 67.752 77.6781 67.1815C78.5204 66.6111 79.4766 66.2299 80.4806 66.0643C82.4275 65.6894 84.3275 65.2206 86.2275 64.916C88.1275 64.6113 90.0979 64.4941 92.0448 64.3535H97.8387L103.609 64.8457L109.286 65.9237L114.775 67.6814C116.525 68.3916 118.161 69.355 119.63 70.5405L119.325 71.1967Z" fill="#FF8C00"/>
<path d="M64.5533 244.97C71.9745 248.127 79.6091 250.759 87.4003 252.844C95.22 254.908 103.244 256.103 111.326 256.406C127.613 257.21 143.847 253.99 158.592 247.032C166.008 243.625 172.954 239.277 179.257 234.096C182.418 231.524 185.419 228.761 188.241 225.823C189.625 224.347 190.869 222.73 192.206 221.136C193.559 219.604 194.798 217.975 195.912 216.262C198.26 212.929 200.399 209.454 202.316 205.856C204.154 202.167 205.791 198.38 207.218 194.514C208.766 190.74 209.775 186.756 210.971 182.796C211.417 180.804 211.769 178.812 212.191 176.796C212.651 174.81 212.995 172.799 213.223 170.774C215.464 154.523 213.791 137.972 208.344 122.497L206.421 116.872L204.075 111.248C202.44 107.524 200.6 103.894 198.563 100.374C197.562 98.6123 196.465 96.9068 195.279 95.2648C194.082 93.6243 193.097 91.8198 191.76 90.2965C189.266 87.1062 186.546 84.0987 183.62 81.2973C171.883 70.0746 157.596 61.864 141.984 57.3698C126.479 53.1749 110.06 53.4561 94.1325 49.7064V48.8159C102.249 49.0971 110.294 49.3783 118.434 50.0814C126.646 50.7148 134.776 52.1433 142.712 54.3466C158.663 59.2885 173.197 67.9753 185.098 79.6803C188.045 82.6145 190.788 85.7465 193.308 89.0544C194.645 90.648 195.654 92.476 196.85 94.1868C198.038 95.8767 199.134 97.6291 200.134 99.4363C202.188 103.04 204.021 106.765 205.623 110.592L207.969 116.31L209.986 122.169C215.387 137.915 216.994 154.712 214.677 171.195C214.432 173.251 214.08 175.293 213.622 177.312C213.2 179.351 212.824 181.39 212.355 183.405C211.135 187.366 210.009 191.373 208.532 195.123C207.073 198.995 205.413 202.789 203.559 206.489C201.597 210.138 199.42 213.668 197.038 217.058C195.903 218.785 194.657 220.437 193.308 222.003C191.948 223.573 190.681 225.19 189.25 226.69C186.388 229.675 183.349 232.485 180.149 235.104C173.752 240.355 166.713 244.773 159.202 248.251C151.718 251.756 143.844 254.36 135.745 256.008C127.672 257.622 119.434 258.26 111.209 257.906C94.8677 257.26 78.8614 253.078 64.2953 245.65L64.5533 244.97Z" fill="#FF8C00"/>
<path d="M68.5411 246.657C63.385 245.173 58.5547 242.733 54.3028 239.463C50.2723 235.952 46.487 232.17 42.9731 228.143C35.5141 220.446 29.0448 211.849 23.715 202.552C23.1051 201.357 22.4248 200.208 21.8384 198.99L20.1964 195.287C19.0236 192.943 18.2964 190.272 17.3582 187.741C16.4199 185.21 15.7162 182.632 15.0125 180.054C14.3088 177.476 13.652 174.851 13.1125 172.203C10.8625 161.65 9.96394 150.853 10.4384 140.073C10.7593 129.261 12.8185 118.571 16.5372 108.412C20.3204 98.2536 25.6966 88.7608 32.4644 80.2896C34.1533 78.2038 36.0533 76.2353 37.836 74.2198C39.6187 72.2044 41.8471 70.5405 43.8175 68.6891C48.0755 65.322 52.684 62.4227 57.5633 60.0414C67.1207 55.1515 77.5124 52.0989 88.198 51.0422L88.4091 51.9328C78.5806 55.9637 68.3769 58.4009 58.9238 62.8771C54.1738 65.0363 49.6746 67.7082 45.5064 70.8451C43.5595 72.5793 41.4718 74.1495 39.6187 76.0243C37.7656 77.8992 35.9829 79.7974 34.2706 81.8129C27.4826 89.9629 22.0639 99.1598 18.2261 109.045C14.4248 118.993 12.3005 129.501 11.9396 140.144C11.3812 150.799 12.217 161.482 14.426 171.922C14.9656 174.523 15.5285 177.125 16.3261 179.679C17.1236 182.233 17.7335 184.811 18.6717 187.296C19.61 189.78 20.3372 192.358 21.4866 194.725L23.0816 198.357C23.6681 199.552 24.3483 200.701 24.9582 201.872C30.2694 211.051 36.6987 219.537 44.099 227.136C47.5688 231.075 51.2907 234.786 55.241 238.244C59.3895 241.398 63.9414 243.983 68.7757 245.931L68.5411 246.657Z" fill="#FF8C00"/>
<path d="M209.634 139.933C208.93 137.777 208.344 135.62 207.781 133.441L205.811 126.949L203.465 120.552C202.644 118.442 201.706 116.357 200.838 114.247C197.145 105.844 192.357 97.9639 186.6 90.8121C180.829 83.7326 173.916 77.6654 166.145 72.8606C164.175 71.7591 162.251 70.517 160.234 69.5562C158.217 68.5953 156.152 67.5876 154.041 66.7674L147.731 64.4238C145.566 63.798 143.449 63.0148 141.398 62.0803L141.515 61.635C143.78 61.9012 146.022 62.332 148.224 62.924C150.406 63.6036 152.517 64.541 154.651 65.2675C156.786 65.994 158.78 67.2829 160.844 68.2672C162.908 69.2515 164.808 70.6108 166.778 71.7825C174.509 76.8388 181.396 83.0785 187.186 90.2731C192.924 97.4517 197.732 105.326 201.495 113.708C202.386 115.841 203.324 117.927 204.169 120.036L206.514 126.481C207.171 128.66 207.828 130.816 208.508 132.996C209.188 135.175 209.587 137.402 209.986 139.605L209.634 139.933Z" fill="#FF8C00"/>
<path d="M202.925 138.737C202.292 136.909 201.8 135.058 201.307 133.183L199.735 127.582L197.929 122.051L195.841 116.591C192.911 109.33 188.841 102.582 183.785 96.6006C178.731 90.6502 173.157 85.1603 167.13 80.1958C164.174 77.7382 161.038 75.5056 157.748 73.5168C154.423 71.641 150.992 69.9587 147.473 68.4782V68.0329C151.454 68.3727 155.262 69.8086 158.475 72.1809C161.762 74.3032 164.898 76.6525 167.857 79.2116C173.773 84.4055 179.264 90.0637 184.277 96.1319C189.347 102.19 193.446 108.997 196.428 116.31L198.633 121.864L200.462 127.442L202.058 133.043C202.527 134.941 202.972 136.816 203.301 138.714L202.925 138.737Z" fill="#FF8C00"/>
<path d="M195.114 131.379C194.129 128.684 193.449 125.895 192.511 123.153C191.572 120.411 190.54 117.716 189.391 115.044C187.103 109.691 184.298 104.574 181.017 99.7644C177.765 94.9429 173.866 90.5901 169.429 86.8281C168.303 85.9141 167.083 85.0704 166.004 84.2033C164.925 83.3362 163.659 82.68 162.369 81.8598C161.078 81.0395 159.812 80.6177 158.592 79.8912C157.264 79.3291 155.998 78.63 154.815 77.8054L154.956 77.3836C156.426 77.5651 157.868 77.9271 159.249 78.4616C160.586 79.0944 161.876 79.8209 163.143 80.5708C164.409 81.3207 165.488 82.2347 166.755 83.1018C168.022 83.9689 169.101 84.9532 170.156 85.9375C174.508 89.9196 178.353 94.4218 181.603 99.3425C184.852 104.25 187.662 109.434 190.001 114.833C191.174 117.528 192.346 120.247 193.191 122.989C194.195 125.719 194.979 128.524 195.537 131.379H195.114Z" fill="#FF8C00"/>
<path d="M186.271 121.489C185.424 119.982 184.687 118.415 184.066 116.802C183.386 115.232 182.682 113.662 181.979 112.115L179.633 107.428L177.217 103.116L174.308 98.8504C173.182 97.5614 171.962 96.2491 170.954 94.9836C169.945 93.718 168.42 92.64 167.154 91.6557C165.634 90.8512 164.337 89.6839 163.377 88.2576L163.612 87.8592C165.305 88.3447 166.858 89.2287 168.139 90.4371L171.822 94.1867L175.035 98.3348L177.85 102.717L180.36 107.404L182.706 112.091C184.221 115.134 185.552 118.264 186.693 121.466L186.271 121.489Z" fill="#FF8C00"/>
<path d="M177.686 117.528C177.112 116.699 176.662 115.792 176.349 114.833L175.199 112.091L172.22 106.912C171.071 105.272 169.875 103.678 168.632 102.225C167.975 101.499 167.271 100.772 166.591 100.046C166.188 99.7252 165.851 99.3284 165.602 98.878C165.352 98.4276 165.194 97.9324 165.136 97.4208L165.488 97.1162C165.993 97.2611 166.461 97.5087 166.865 97.8434C167.269 98.1782 167.599 98.5929 167.834 99.0613L169.593 101.405C170.649 103.139 171.751 104.826 172.877 106.514L175.927 111.834L177.146 114.599C177.603 115.487 177.934 116.433 178.132 117.411L177.686 117.528Z" fill="#FF8C00"/>
<path d="M109.755 72.6497C108.772 72.4027 107.814 72.0654 106.893 71.6419C105.908 71.4076 104.946 71.0795 103.938 70.892C102.929 70.7045 101.897 70.4702 100.865 70.3061H97.7683H94.6955C93.6634 70.3061 92.6547 70.6108 91.6461 70.7748C90.6374 70.9389 89.6757 71.3138 88.714 71.5716C87.7824 72.0783 86.6953 72.2203 85.6646 71.97L85.4769 71.5482C85.8182 71.1132 86.2472 70.7548 86.7362 70.4964C87.2253 70.2379 87.7633 70.0853 88.3152 70.0483C89.3708 69.9077 90.4029 69.6968 91.4584 69.6265L94.6251 69.4156H97.7918L100.935 69.6031C101.991 69.7202 103.023 69.9077 104.055 70.0483C106.149 70.3258 108.157 71.0533 109.942 72.1809L109.755 72.6497Z" fill="#FF8C00"/>
<path d="M105.134 76.5399C104.471 76.6081 103.801 76.5444 103.163 76.3524L101.216 76.0009C99.9112 75.7911 98.5958 75.6502 97.2757 75.5791H95.3053L93.3584 75.8603L91.4819 76.3993C91.1862 76.5948 90.8395 76.6991 90.485 76.6991C90.1304 76.6991 89.7837 76.5948 89.488 76.3993L89.3473 75.954C89.5189 75.6266 89.7793 75.354 90.0987 75.1675C90.4181 74.981 90.7837 74.8881 91.1535 74.8994L93.2177 74.7823C94.5782 74.7823 95.9387 74.7823 97.2992 74.8994C98.6597 75.0166 99.9733 75.1572 101.31 75.3447C102.634 75.4575 103.936 75.7492 105.181 76.2118L105.134 76.5399Z" fill="#FF8C00"/>
<path d="M104.899 80.5942C104.354 80.6424 103.806 80.5538 103.304 80.3364L101.756 79.8912C100.692 79.6219 99.6102 79.4262 98.519 79.3053C97.4674 79.1759 96.4039 79.1759 95.3523 79.3053L93.8745 79.7037C93.6274 79.8753 93.328 79.9551 93.0281 79.9295C92.7283 79.9038 92.4468 79.7742 92.2325 79.5631L92.0918 79.1412C92.1871 78.8387 92.3837 78.5782 92.6485 78.4032C92.9133 78.2283 93.2302 78.1496 93.5461 78.1804H95.2585C96.3817 78.2294 97.5014 78.3389 98.6128 78.5085C99.6918 78.6725 100.771 78.8835 101.85 79.1178C102.927 79.2913 103.966 79.648 104.923 80.1724L104.899 80.5942Z" fill="#FF8C00"/>
<path d="M24.8408 146.12C24.1727 147.457 23.7818 148.916 23.6914 150.408C23.5851 151.93 23.5851 153.457 23.6914 154.978C23.858 158.056 24.3295 161.11 25.0988 164.094C25.8076 167.101 26.9451 169.989 28.4766 172.672C29.2362 173.983 30.2488 175.13 31.4557 176.047C32.0423 176.475 32.7205 176.762 33.437 176.884C34.1534 177.006 34.8885 176.96 35.5841 176.75C36.2724 176.511 36.8957 176.116 37.4046 175.596C37.9135 175.075 38.2941 174.443 38.5162 173.75C39.0248 172.321 39.2788 170.814 39.2668 169.297C39.2266 166.221 38.7447 163.167 37.8359 160.228C37.0013 157.279 35.8203 154.439 34.3174 151.767C33.5735 150.497 32.7262 149.29 31.7841 148.158C30.8458 147.104 29.9075 146.049 28.4766 146.166L28.1482 145.745C28.5312 145.495 28.9723 145.349 29.4285 145.32C29.8847 145.292 30.3406 145.381 30.752 145.581C31.5497 145.912 32.269 146.407 32.8631 147.034C33.9518 148.232 34.8604 149.582 35.5606 151.041C36.9777 153.862 38.0715 156.833 38.8211 159.9C39.6387 162.957 40.0411 166.11 40.0174 169.274C39.9843 170.875 39.683 172.459 39.1261 173.961C38.8451 174.753 38.3893 175.472 37.7924 176.064C37.1955 176.657 36.4728 177.107 35.6779 177.382C34.8868 177.626 34.0489 177.679 33.2334 177.537C32.4178 177.394 31.6477 177.06 30.9865 176.562C29.6971 175.586 28.6198 174.358 27.8198 172.953C26.24 170.214 25.0629 167.262 24.3248 164.188C23.5404 161.117 23.0534 157.978 22.8704 154.814C22.73 153.255 22.73 151.686 22.8704 150.127C22.9548 148.526 23.5096 146.985 24.4655 145.698L24.8408 146.12Z" fill="#FF8C00"/>
<path d="M36.9681 186.147C36.1391 189.655 35.9563 193.284 36.4285 196.857C37.0247 200.453 38.1222 203.947 39.6891 207.239C42.6654 213.977 46.9647 220.049 52.3323 225.097C57.8056 230.089 64.0669 234.143 70.8633 237.096C74.2163 238.647 77.7448 239.788 81.3719 240.494C84.9546 241.355 88.6777 241.458 92.3028 240.798C93.1708 240.635 93.9958 240.295 94.7262 239.799C95.4567 239.303 96.0771 238.662 96.5485 237.916C97.3325 236.316 97.5396 234.495 97.135 232.76C96.2553 229.181 94.6595 225.817 92.4436 222.87C87.9275 217.023 82.7038 211.757 76.8917 207.192C74.0534 204.849 71.1917 202.505 68.3768 200.044C65.562 197.584 62.8645 195.123 59.9793 192.873C57.1157 190.645 54.0803 188.647 50.9014 186.897C47.8737 185.044 44.3265 184.222 40.7915 184.554L40.6508 184.132C42.4381 183.416 44.3992 183.253 46.2804 183.663C48.1453 184.039 49.9518 184.662 51.6521 185.514C54.9963 187.238 58.1424 189.32 61.0348 191.725C63.9435 194.068 66.641 196.623 69.362 199.083C72.083 201.544 74.9213 203.888 77.7361 206.231C83.5322 210.956 88.745 216.353 93.2646 222.308C95.4916 225.386 97.0861 228.875 97.956 232.573C98.3808 234.495 98.1324 236.506 97.2523 238.267C96.7253 239.089 96.0385 239.797 95.2326 240.348C94.4267 240.9 93.5182 241.284 92.5609 241.478C88.826 242.155 84.9906 242.043 81.3016 241.15C77.6264 240.421 74.0514 239.256 70.6521 237.682C63.7814 234.695 57.4432 230.611 51.8866 225.589C46.4535 220.47 42.0852 214.33 39.0323 207.52C37.4354 204.161 36.3143 200.596 35.7014 196.927C35.2067 193.238 35.5352 189.484 36.6631 185.936L36.9681 186.147Z" fill="#FF8C00"/>
<path d="M134.947 47.1754C133.494 46.1402 132.114 45.0047 130.819 43.7773L126.808 40.2151L118.715 33.1845C116.018 30.841 113.179 28.4974 110.505 26.1539C107.971 23.8527 105.248 21.7674 102.366 19.9201V19.4748C102.855 19.3091 103.375 19.2568 103.887 19.3218C104.399 19.3867 104.89 19.5673 105.321 19.8498C106.118 20.3265 106.858 20.8926 107.526 21.5371C108.887 22.7323 110.154 24.0213 111.444 25.2868C113.93 27.8647 116.628 30.2082 119.325 32.6455L127.418 39.6761L131.359 43.2148C132.735 44.331 134.021 45.5534 135.205 46.8707L134.947 47.1754Z" fill="#FF8C00"/>
<path d="M160.75 10.4756C158.402 10.5376 156.053 10.4672 153.713 10.2647L146.676 10.6397L139.639 11.6708L132.743 13.2175L125.94 15.1158L119.184 17.2016L112.593 19.3342C110.379 20.1564 108.036 20.577 105.673 20.5763L105.556 20.131C107.606 18.967 109.845 18.1736 112.171 17.7874L118.973 16.0298L125.799 14.2018L132.696 12.4442L139.733 10.9443L146.77 9.86629L153.807 9.44445C156.163 9.50286 158.513 9.70635 160.844 10.0538L160.75 10.4756Z" fill="#FF8C00"/>
<path d="M169.617 49.2143C168.195 47.8168 166.856 46.3379 165.606 44.785C164.269 43.2851 162.932 41.7853 161.548 40.3323C158.77 37.3972 155.809 34.6419 152.681 32.083C149.572 29.5277 146.199 27.3121 142.618 25.4742C140.848 24.5606 139.013 23.7773 137.129 23.1307C136.191 22.826 135.229 22.6386 134.314 22.2636C133.343 21.9981 132.412 21.604 131.546 21.0918V20.6231C132.58 20.4588 133.633 20.4588 134.666 20.6231C135.658 20.8726 136.63 21.1937 137.575 21.584C139.472 22.4177 141.313 23.3728 143.087 24.4431C146.606 26.4958 149.942 28.848 153.056 31.4737C156.211 34.0946 159.218 36.8876 162.064 39.8401C163.448 41.2931 164.832 42.7695 166.169 44.2928C167.548 45.7484 168.803 47.3162 169.922 48.9799L169.617 49.2143Z" fill="#FF8C00"/>
<path d="M187.444 17.6937C185.284 17.7601 183.122 17.6975 180.97 17.5062L174.472 17.0844L161.36 17.2484C157.02 17.6703 152.657 18.1155 148.365 18.6077L142.008 19.9904C139.913 20.625 137.713 20.84 135.534 20.6231L135.417 20.1779C137.385 19.2152 139.518 18.6347 141.703 18.4671L148.201 17.4594C152.611 17.1781 156.989 16.8266 161.336 16.4048H174.496L181.017 16.7563C183.185 16.8108 185.348 17.0065 187.491 17.3422L187.444 17.6937Z" fill="#FF8C00"/>
<path d="M191.103 46.4723C189.965 45.7129 188.938 44.7978 188.054 43.7538C187.139 42.7461 186.224 41.715 185.333 40.6838C183.55 38.5981 181.791 36.4889 179.938 34.4969C178.107 32.4893 176.088 30.6609 173.909 29.0364C172.842 28.2517 171.703 27.569 170.508 26.9975C169.251 26.5615 168.083 25.9025 167.06 25.0524V24.6071C167.773 24.4853 168.504 24.512 169.206 24.6854C169.908 24.8588 170.567 25.1752 171.141 25.6149C172.37 26.3579 173.539 27.1963 174.637 28.1224C176.717 29.9467 178.668 31.9121 180.477 34.0047L185.872 40.2151C186.787 41.2228 187.679 42.254 188.617 43.2383C189.585 44.1713 190.502 45.1571 191.361 46.1911L191.103 46.4723Z" fill="#FF8C00"/>
<path d="M197.484 24.49C196.3 24.3348 195.131 24.084 193.988 23.74C192.816 23.5525 191.643 23.3182 190.423 23.1776C189.203 23.037 188.077 22.9901 186.787 22.9432H183.151L179.516 23.4354C178.319 23.5994 177.17 23.8338 175.927 24.0213C174.683 24.2087 173.581 24.5837 172.408 24.8649C171.269 25.3565 170.001 25.4635 168.796 25.1696L168.655 24.7478C169.6 23.895 170.808 23.3905 172.08 23.3182L175.739 22.8729L179.422 22.5448L183.128 22.3573H186.811L190.493 22.5683C192.917 22.7362 195.295 23.3065 197.53 24.2556L197.484 24.49Z" fill="#FF8C00"/>
<path d="M109.755 42.8164C108.739 42.1422 107.837 41.3117 107.081 40.3557C106.283 39.4652 105.509 38.5277 104.735 37.5669C103.21 35.6921 101.732 33.7469 100.184 31.8955C98.6592 30.0248 96.9886 28.2773 95.188 26.6694C94.3075 25.8925 93.3662 25.1872 92.3732 24.5603C91.2958 24.0758 90.3417 23.3548 89.5818 22.4511L89.746 22.0058C90.3953 21.9424 91.0505 22.0253 91.6635 22.2484C92.2765 22.4714 92.8316 22.829 93.288 23.2948C94.254 24.0558 95.1634 24.8861 96.009 25.7789C97.7213 27.56 99.246 29.4583 100.7 31.38L105.228 37.0748C106.002 38.0122 106.776 38.9261 107.573 39.8167C108.41 40.6494 109.193 41.5339 109.919 42.4649L109.755 42.8164Z" fill="#FF8C00"/>
<path d="M108.113 35.9733C107.392 35.5447 106.768 34.9699 106.283 34.2859C105.744 33.6298 105.251 32.9736 104.758 32.2939C103.773 30.9581 102.835 29.5989 101.826 28.2865C100.832 26.967 99.7256 25.7359 98.519 24.6071C97.9516 24.0619 97.3308 23.5751 96.6659 23.1541C95.9105 22.8426 95.2938 22.2681 94.9301 21.5371L95.1646 21.0918C95.6147 20.9584 96.0946 20.9631 96.5421 21.1051C96.9895 21.2472 97.384 21.5201 97.6745 21.8886C98.3166 22.4748 98.9126 23.1094 99.4572 23.7869C100.513 25.0993 101.475 26.4585 102.436 27.8178C103.398 29.177 104.336 30.5363 105.345 31.8487C105.838 32.5049 106.33 33.1376 106.87 33.7704C107.44 34.3443 107.944 34.9811 108.371 35.6686L108.113 35.9733Z" fill="#FF8C00"/>
<path d="M109.755 31.1456C109.258 30.8329 108.834 30.4173 108.512 29.927L107.433 28.5677C106.729 27.6537 106.002 26.7632 105.228 25.8726C104.485 25.0536 103.702 24.2715 102.882 23.5291C102.441 23.18 101.979 22.859 101.498 22.5683C101.203 22.4427 100.954 22.2287 100.786 21.9558C100.618 21.683 100.539 21.3647 100.56 21.045L100.841 20.6466C101.16 20.5691 101.496 20.5982 101.796 20.7294C102.097 20.8607 102.347 21.0867 102.507 21.3731C102.905 21.8183 103.351 22.2402 103.726 22.6854C104.43 23.6463 105.181 24.5603 105.931 25.4508C106.682 26.3414 107.386 27.2553 108.113 28.1693L109.215 29.4817C109.641 29.8835 109.962 30.382 110.154 30.9347L109.755 31.1456Z" fill="#FF8C00"/>
<path d="M161.548 45.8865C160.797 44.8553 160.328 43.7538 159.577 42.7227C158.838 41.7086 158.03 40.7456 157.161 39.8401C155.456 37.9575 153.571 36.2463 151.531 34.7312C149.491 33.2165 147.316 31.8908 145.034 30.7706C143.91 30.2285 142.759 29.7435 141.586 29.3176C140.393 29.0185 139.295 28.4218 138.396 27.5834V27.1147C139.053 26.9774 139.731 26.9709 140.391 27.0956C141.052 27.2202 141.681 27.4736 142.243 27.8412C143.415 28.4037 144.588 29.0364 145.644 29.6926C147.859 31.0288 149.99 32.5002 152.024 34.0985C154.068 35.6766 155.982 37.4164 157.748 39.3011C158.592 40.2508 159.375 41.2527 160.093 42.3008C160.91 43.3167 161.508 44.4893 161.853 45.7458L161.548 45.8865Z" fill="#FF8C00"/>
<path d="M157.161 46.1911C156.381 45.5256 155.673 44.7793 155.05 43.9648C154.37 43.168 153.69 42.418 152.986 41.6212C151.604 40.1555 150.131 38.7779 148.576 37.4966C147.011 36.1868 145.294 35.0695 143.462 34.1688C142.601 33.6984 141.688 33.3288 140.741 33.0673C139.747 32.9921 138.788 32.6699 137.95 32.1299V31.6612C138.449 31.3732 139.015 31.2216 139.592 31.2216C140.168 31.2216 140.735 31.3732 141.234 31.6612C142.244 32.0331 143.211 32.5124 144.119 33.0907C145.91 34.2235 147.604 35.5011 149.186 36.9107C150.757 38.2934 152.259 39.7464 153.713 41.2463C154.417 42.0196 155.12 42.7696 155.801 43.5898C156.536 44.3322 157.16 45.1768 157.654 46.0974L157.161 46.1911Z" fill="#FF8C00"/>
<path d="M149.655 44.8084C149.102 44.5315 148.62 44.1305 148.248 43.6367L146.981 42.3008C146.136 41.4103 145.268 40.5198 144.354 39.723C143.459 38.8778 142.476 38.1314 141.422 37.4966C140.925 37.2114 140.398 36.9834 139.85 36.817C139.562 36.7862 139.285 36.6926 139.038 36.5427C138.79 36.3929 138.579 36.1905 138.419 35.9499V35.4811C138.688 35.1927 139.057 35.0194 139.451 34.9976C139.845 34.9757 140.231 35.107 140.53 35.364C141.098 35.7142 141.639 36.1059 142.149 36.5357C143.134 37.356 144.025 38.2231 144.917 39.0902L147.544 41.715L148.834 43.0508C149.315 43.4395 149.707 43.927 149.983 44.4803L149.655 44.8084Z" fill="#FF8C00"/>
<path d="M4.69141 81.8598C6.75561 78.5788 9.38278 75.954 11.7285 72.7668C14.0742 69.5796 16.4199 66.533 18.7655 63.5802L22.6594 59.1743L26.9285 55.1434L31.4088 51.3469L35.9829 47.7144L45.3657 40.6838C46.9373 39.512 48.4385 38.3403 50.057 37.1685L54.9126 33.8875L57.2583 32.2471C58.0793 31.7081 58.9472 31.2628 59.7916 30.7706L64.9052 27.8881C66.5966 26.9133 68.3901 26.1274 70.2534 25.5446C72.1142 24.8825 74.0721 24.5341 76.0473 24.5134L76.3522 25.3805C73.3497 28.3099 69.7374 29.2005 66.2423 30.7472L60.9879 33.1142C60.12 33.536 59.2521 33.911 58.4077 34.3797L56.062 35.8327L51.1126 38.809C49.4706 39.8167 47.9225 40.9885 46.4212 42.0899C43.278 44.3163 40.1113 46.5895 37.0385 48.9096L32.3471 52.4484L27.7495 56.2449L23.4569 60.1586L19.7507 64.4941C17.405 67.4236 15.0594 70.5873 12.7137 73.6808C10.5481 76.8736 8.01287 79.7999 5.16054 82.3988L4.69141 81.8598Z" fill="#FF8C00"/>
<path d="M1.33704 85.3516C4.92594 77.7117 6.02841 68.7359 9.31238 60.4867C10.9451 56.3136 13.1989 52.4106 15.9976 48.9096L17.9914 46.2146C18.6951 45.3709 19.4692 44.5506 20.2198 43.7304C21.6674 42.0124 23.2351 40.3991 24.9112 38.9027C26.6001 37.4497 28.1248 35.8092 29.9544 34.4969C31.7841 33.1845 33.5433 31.8252 35.373 30.5597L38.3051 28.8489L39.7829 28.0053L41.331 27.3256L44.4273 25.9664L47.6644 24.9587L49.2829 24.4431L50.9484 24.115L54.2089 23.4354C56.4573 23.1424 58.7207 22.9781 60.9879 22.9432C65.5142 22.5577 70.0516 23.546 74.0065 25.7789L73.7954 26.6695C69.2447 27.2788 65.2101 26.2242 60.9175 26.107C58.7924 25.99 56.6624 25.99 54.5373 26.107L51.3706 26.5757L49.7755 26.7866L48.2274 27.2085L45.1076 28.1224L42.1051 29.2942L40.5804 29.8801C40.1113 30.1145 39.6421 30.3957 39.1495 30.63L36.2878 32.1768C34.4582 33.3485 32.6989 34.6375 30.8927 35.8796C29.1282 37.1687 27.4293 38.5453 25.8026 40.0042C24.1267 41.4504 22.5587 43.0169 21.1112 44.6913L18.9062 47.0348L17.1235 49.7533C14.3987 53.1218 12.2145 56.893 10.6494 60.932C9.1617 65.0289 7.90864 69.2072 6.89632 73.4465C6.33335 75.5791 5.74693 77.6883 5.1136 79.7974C4.71483 80.8286 4.2926 81.8832 3.82347 82.8909C3.35433 83.8986 2.62717 84.7892 1.99383 85.6797L1.33704 85.3516Z" fill="#FF8C00"/>
<path d="M0 86.0078C3.615 83.961 7.4778 82.3858 11.4939 81.3207C15.4581 80.0787 19.3988 78.9772 23.2223 77.4539C31.0079 74.6076 38.4382 70.8722 45.3656 66.3221C52.2844 61.8307 58.2994 56.0836 63.099 49.3783C65.3713 46.0658 67.1345 42.4321 68.3299 38.5981L68.799 37.1685C68.9158 36.7205 69.0097 36.2668 69.0805 35.8092C69.2447 34.8484 69.4324 33.8407 69.667 32.833C69.8991 31.8149 70.1968 30.8129 70.5583 29.8332C70.7558 29.3282 70.983 28.8352 71.2386 28.3568C71.5175 27.7522 71.9258 27.2162 72.4349 26.7866L72.8336 27.3256C73.1858 29.3415 73.1858 31.403 72.8336 33.4188C72.7203 34.4605 72.5401 35.4938 72.2941 36.5123C72.1721 37.0683 72.0154 37.6162 71.825 38.1528L71.2151 39.6292C69.66 43.6148 67.5518 47.3621 64.9521 50.761C59.6688 57.3591 53.3278 63.0371 46.1866 67.5642C39.1112 72.0837 31.5791 75.8463 23.7149 78.7897C19.8211 80.2896 15.8334 81.5082 11.9865 82.7737C9.99263 83.3831 8.09263 84.0861 6.1457 84.7423C4.19878 85.3985 2.34569 86.1953 0.328396 86.7109L0 86.0078Z" fill="#FF8C00"/>
<path d="M51.6051 59.8539C51.8099 58.6231 52.132 57.4146 52.5668 56.2449L53.6693 52.589C54.3965 50.2454 55.1002 47.691 55.8273 45.2303C56.5545 42.7695 57.2348 40.3088 57.7274 37.8247C57.9854 36.5592 58.2434 35.3171 58.5953 34.0516C58.7451 33.4089 58.9736 32.7871 59.2755 32.2002C59.4458 31.8456 59.7026 31.5396 60.0223 31.3103C60.3421 31.0809 60.7144 30.9356 61.1051 30.8878L61.2693 31.3097C60.9596 32.4185 60.5595 33.5001 60.073 34.5437C59.6274 35.6921 59.2286 36.8873 58.8533 38.1059C58.1496 40.5666 57.2817 43.0039 56.5076 45.4412L54.3261 52.7765L53.2705 56.4324C52.9752 57.6686 52.5507 58.8704 52.0039 60.018L51.6051 59.8539Z" fill="#FF8C00"/>
<path d="M22.4014 47.3863C23.6341 46.2535 24.9602 45.2266 26.3656 44.3163L30.7755 41.9727L35.4669 39.9573L40.1582 38.2231L49.7521 35.1531L54.4435 33.5829C55.9745 32.8688 57.6593 32.5466 59.346 32.6455L59.4867 33.0673C58.1539 34.1094 56.5816 34.8022 54.9126 35.0827L50.0336 36.3014C46.7965 37.0748 43.5595 37.9653 40.3693 38.9496L35.678 40.6369L30.9866 42.6289L26.6471 44.9725C25.3542 45.9807 23.9814 46.882 22.5421 47.6675L22.4014 47.3863Z" fill="#FF8C00"/>
<path d="M31.6199 74.2198C31.7712 71.3611 32.1794 68.5218 32.8396 65.7362L33.8248 61.5413L35.0211 57.3698L36.4989 53.2686L38.3285 49.2143C39.0323 47.9488 39.8298 46.7067 40.6742 45.4412C41.4942 44.1937 42.6713 43.2219 44.052 42.6524L44.357 42.9805C43.9091 44.3169 43.0967 45.5019 42.0113 46.402C41.1903 47.5269 40.3224 48.6284 39.5248 49.8002C38.7273 50.9719 38.1643 52.2609 37.531 53.5264L35.9359 57.5104L34.6927 61.6116L33.731 65.8065L32.8396 70.0952C32.7149 71.509 32.4477 72.9065 32.0421 74.2667L31.6199 74.2198Z" fill="#FF8C00"/>
<path d="M9.10132 61.7991C10.2227 60.7433 11.4399 59.794 12.7371 58.9634L16.5372 56.2449L24.489 51.3469C27.2569 49.8939 30.0014 48.4175 32.7459 46.8942L36.9916 44.9959C38.3598 44.2074 39.9158 43.8025 41.4953 43.8241L41.636 44.246C40.508 45.3339 39.1054 46.0954 37.578 46.4489L33.215 47.9722C30.494 49.2143 27.6323 50.6438 24.8643 52.0265L16.9359 56.8776L13.1828 59.5727C11.9912 60.5238 10.7198 61.3706 9.3828 62.1037L9.10132 61.7991Z" fill="#FF8C00"/>
<path d="M17.6865 80.6411C17.7609 79.6842 17.9178 78.7354 18.1557 77.8054C18.3433 76.868 18.5075 75.9306 18.6717 74.9698L19.5631 69.2047C19.8546 67.2527 20.2619 65.3198 20.7828 63.4161C21.0686 62.4476 21.4213 61.5001 21.8384 60.5804C21.9977 60.07 22.2868 59.6096 22.6773 59.244C23.0679 58.8785 23.5466 58.6203 24.0668 58.4947L24.3952 58.8228C24.2638 59.7685 23.8464 60.6516 23.1989 61.3538C22.6919 62.1353 22.2525 62.9585 21.8853 63.8145C21.1707 65.5924 20.6364 67.4374 20.2902 69.3218C19.9149 71.2435 19.6569 73.1652 19.3754 75.0869L18.9063 77.946C18.7936 78.9185 18.5076 79.8631 18.0618 80.7349L17.6865 80.6411Z" fill="#FF8C00"/>
<path d="M5.58276 69.7202C6.54593 68.258 7.78002 66.9932 9.21858 65.994L11.3532 64.4707L13.6988 63.0646C15.2235 62.174 16.7482 61.3069 18.3902 60.5101L20.7359 59.3384C21.1255 59.0891 21.5679 58.9338 22.028 58.885C22.4881 58.8362 22.9532 58.8951 23.3865 59.0571V59.5024C23.1459 59.9022 22.8147 60.2398 22.4194 60.4881C22.0242 60.7365 21.5761 60.8885 21.1112 60.932L18.7655 61.7053C17.1579 62.3068 15.5909 63.0113 14.0742 63.8145L11.7285 65.0332C11.0013 65.5253 10.3211 66.0409 9.64081 66.5565C8.96056 67.072 8.35068 67.6814 7.71734 68.2204C7.18115 68.8797 6.55774 69.4631 5.86425 69.9546L5.58276 69.7202Z" fill="#FF8C00"/>
<path d="M65.1632 47.7144C65.1811 46.866 65.3073 46.0234 65.5385 45.2068L65.9138 42.6992L66.4768 37.5435C66.6644 35.8327 66.8521 34.0985 67.1805 32.3642C67.2978 31.4971 67.6027 30.6535 67.8138 29.7629C67.9117 29.2964 68.1266 28.8624 68.4385 28.5016C68.7503 28.1409 69.1488 27.8652 69.5966 27.7006L69.9484 27.9818C70.0025 28.3999 69.9678 28.8247 69.8466 29.2285C69.7253 29.6323 69.5202 30.0061 69.2447 30.3254C68.8916 31.0898 68.5784 31.872 68.3064 32.6689C67.8057 34.2992 67.4447 35.9692 67.2274 37.6606L66.641 42.793C66.5442 44.528 66.172 46.2367 65.5385 47.855L65.1632 47.7144Z" fill="#FF8C00"/>
<path d="M63.5682 42.9805C63.4952 42.4066 63.5431 41.8239 63.7089 41.2697L63.92 39.5589C63.92 38.3871 64.0842 37.2154 64.1311 36.0436C64.178 34.8718 64.1311 33.7001 64.3422 32.458C64.3999 31.8344 64.5018 31.2157 64.6472 30.6066C64.6727 30.25 64.823 29.9137 65.0717 29.6566C65.3205 29.3995 65.6518 29.2381 66.0077 29.2005L66.3595 29.4817C66.7114 30.4425 66.3595 30.6535 66.1015 31.169C65.8561 31.659 65.6521 32.1685 65.4916 32.6923C65.1838 33.8049 64.972 34.9418 64.8583 36.0905C64.8583 37.2622 64.6941 38.434 64.6237 39.6058C64.6475 40.7972 64.4155 41.9799 63.9435 43.0742L63.5682 42.9805Z" fill="#FF8C00"/>
<path d="M60.7534 40.7307C60.6374 40.3327 60.6374 39.91 60.7534 39.512L60.941 38.2934C60.941 37.4732 61.1521 36.6529 61.2225 35.8327C61.2929 35.0124 61.4102 34.1688 61.4336 33.3251L61.6213 32.0361C61.6213 31.6143 61.6213 31.1456 62.5126 31.0284L62.9349 31.1925C63.5213 31.8721 63.3102 32.1768 63.1225 32.5049C62.9197 32.8523 62.7395 33.2124 62.583 33.5829C62.3484 34.3563 62.1139 35.1296 61.9497 35.9264C61.7855 36.7232 61.7386 37.5669 61.6447 38.27L61.5274 39.4886C61.5348 39.9135 61.412 40.3305 61.1756 40.6838L60.7534 40.7307Z" fill="#FF8C00"/>
<path d="M35.1854 69.275C34.7549 67.4802 34.7549 65.6093 35.1854 63.8145C35.3965 62.924 35.5607 62.01 35.8187 61.1194L36.6866 58.5884L37.6718 56.034C38.0236 55.1669 38.4459 54.3466 38.8212 53.503C39.1965 52.6593 39.6891 51.8625 40.1113 51.0422C40.2968 50.5946 40.5842 50.1963 40.9506 49.879C41.3171 49.5617 41.7525 49.3341 42.2224 49.2143L42.5508 49.5424C42.5131 49.9943 42.3858 50.4342 42.1764 50.8365C41.967 51.2388 41.6797 51.5955 41.3311 51.8859C40.8132 52.5333 40.3278 53.2059 39.8767 53.9014C39.4311 54.6513 38.9385 55.4012 38.5397 56.2449L37.4372 58.5884L36.5693 61.1429C36.3347 62.01 36.1705 62.9005 35.9829 63.7676C35.7952 64.6348 35.7952 65.5253 35.7014 66.4158C35.7833 67.2888 35.7833 68.1676 35.7014 69.0406L35.1854 69.275Z" fill="#FF8C00"/>
<path d="M37.9298 67.7282C37.7887 67.0007 37.7887 66.2528 37.9298 65.5253L38.3521 63.3458C38.6335 61.8928 38.9854 60.4398 39.4076 59.0103C39.8223 57.5614 40.3396 56.1439 40.9558 54.7685C41.2829 54.0541 41.6755 53.3716 42.1286 52.7296C42.324 52.3415 42.6397 52.027 43.0285 51.8327C43.4174 51.6385 43.8587 51.5749 44.2866 51.6516L44.4978 52.05C44.4275 52.3993 44.2874 52.7308 44.0859 53.0248C43.8844 53.3188 43.6255 53.5691 43.3249 53.7607C42.8067 54.2267 42.3566 54.7631 41.9879 55.3543C41.198 56.562 40.5747 57.8706 40.1348 59.2446C39.6599 60.6268 39.299 62.0454 39.0558 63.4864C38.915 64.1895 38.7977 64.916 38.6805 65.6425C38.6393 66.3663 38.4808 67.0786 38.2113 67.7517L37.9298 67.7282Z" fill="#FF8C00"/>
<path d="M41.9643 64.002C41.8392 63.5735 41.8392 63.1182 41.9643 62.6896L42.2693 61.4241C42.4569 60.557 42.6446 59.6899 42.8557 58.8462C43.0668 58.0025 43.231 57.112 43.489 56.2215C43.6218 55.75 43.7864 55.288 43.9816 54.8388C44.0204 54.6883 44.0928 54.5486 44.1933 54.43C44.2937 54.3115 44.4197 54.2171 44.5618 54.154C44.7039 54.0909 44.8585 54.0607 45.0139 54.0656C45.1693 54.0706 45.3216 54.1106 45.4594 54.1826L45.647 54.6044C45.647 55.4247 45.647 55.4247 45.2952 55.7293C45.0094 56.0056 44.7645 56.3213 44.568 56.6667C44.1474 57.4089 43.8092 58.1947 43.5594 59.0103C43.3248 59.8305 43.1372 60.6976 42.973 61.5413L42.7149 62.8302C42.6885 63.2784 42.5338 63.7095 42.2693 64.0723L41.9643 64.002Z" fill="#FF8C00"/>
<path d="M184.207 59.0103C183.222 56.4089 182.119 53.9014 180.97 51.3938C180.477 50.2689 179.914 49.1674 179.375 48.0659C178.685 48.2113 177.988 48.3209 177.287 48.394C177.827 49.683 178.343 50.9719 178.788 52.2843C179.703 54.8153 180.548 57.3932 181.134 59.9477C181.462 61.2366 181.72 62.5256 182.096 63.7208C182.471 64.916 182.987 66.0643 183.386 67.1189L184.183 67.611C184.732 66.9764 185.121 66.2197 185.317 65.4043C185.513 64.5888 185.51 63.7383 185.309 62.924C185.093 61.5816 184.723 60.2685 184.207 59.0103Z" fill="#FF8C00"/>
<path d="M176.513 53.9014L173.909 48.4409L171.751 48.3237C172.619 50.4798 173.487 52.6358 174.332 54.7919C175.2 57.4401 176.044 60.0883 176.888 62.7131C177.162 65.5326 178.283 68.2037 180.102 70.3764L180.993 70.1889C181.466 67.3197 181.074 64.375 179.867 61.7288C178.741 59.2212 177.639 56.6199 176.513 53.9014Z" fill="#FF8C00"/>
<path d="M200.298 70.7748L195.232 69.1812L190.001 68.1735L184.7 67.7282H179.375C177.616 67.8454 175.833 68.0563 174.05 68.1969C172.69 68.4079 171.329 68.7125 169.969 68.9937L172.549 71.1732C173.206 70.9389 173.839 70.7045 174.519 70.517C176.161 70.1655 177.85 69.7671 179.539 69.5093C181.228 69.2515 182.964 69.2515 184.676 69.2047L189.837 69.5328L194.88 70.5405L199.712 72.1575C201.172 73.0319 202.753 73.6873 204.403 74.1026L204.802 73.4465C203.457 72.3161 201.936 71.4137 200.298 70.7748Z" fill="#FF8C00"/>
<path d="M287.793 120.786L285.94 115.372L283.828 110.146C282.347 106.638 280.663 103.219 278.785 99.905C277.874 98.2366 276.864 96.6244 275.759 95.0773C274.763 93.4592 273.683 91.8946 272.522 90.3902C270.2 87.3647 267.677 84.4991 264.969 81.8129C254.048 71.0668 240.702 63.1014 226.054 58.5884C211.3 54.3232 196.193 54.042 181.486 53.5967L181.345 54.5107C195.959 58.0494 211.042 57.7682 225.233 61.5413C239.497 65.6765 252.55 73.1938 263.28 83.4534C265.954 86.0281 268.446 88.7845 270.739 91.7026C271.959 93.1087 272.874 94.7492 273.953 96.2491C275.054 97.75 276.064 99.3152 276.979 100.936C278.86 104.159 280.544 107.493 282.022 110.92L284.368 116.075L286.244 121.372C291.256 135.559 292.8 150.737 290.748 165.641C290.532 167.501 290.211 169.348 289.786 171.172C289.411 173 289.083 174.851 288.684 176.679C287.582 180.265 286.643 183.897 285.236 187.389C283.923 190.898 282.42 194.333 280.732 197.677C278.968 200.983 277.002 204.176 274.844 207.239C273.826 208.802 272.698 210.29 271.467 211.692C270.247 213.121 269.121 214.598 267.807 215.957C260.034 224.073 250.814 230.669 240.621 235.408C233.883 238.569 226.798 240.929 219.51 242.439C212.213 243.869 204.772 244.428 197.343 244.103C188.381 243.729 179.505 242.209 170.93 239.58C170.582 240.01 170.189 240.403 169.758 240.752C178.587 243.601 187.766 245.225 197.038 245.579C212.218 246.237 227.331 243.188 241.066 236.697C247.968 233.503 254.432 229.439 260.301 224.605C263.248 222.2 266.044 219.617 268.675 216.871C269.965 215.512 271.021 213.988 272.381 212.559C273.636 211.126 274.788 209.607 275.83 208.012C278.018 204.897 280.023 201.658 281.835 198.31C283.538 194.91 285.057 191.421 286.385 187.858C287.84 184.343 288.731 180.64 289.904 177.007C290.349 175.156 290.678 173.281 291.077 171.43C291.5 169.573 291.829 167.696 292.062 165.805C294.201 150.672 292.738 135.248 287.793 120.786Z" fill="#FF8C00"/>
<path d="M160.469 62.0803C165.653 60.2992 170.93 58.6353 176.067 56.4558L175.927 55.5653C169.334 56.1241 162.847 57.5747 156.645 59.8774C157.865 60.5336 159.178 61.2835 160.469 62.0803Z" fill="#FF8C00"/>
<path d="M287.323 137.191C286.667 135.222 286.127 133.23 285.611 131.238L283.828 125.285L281.717 119.403C280.967 117.458 280.122 115.56 279.371 113.615C275.978 105.946 271.584 98.7599 266.306 92.2416C261.013 85.7639 254.669 80.2188 247.54 75.8369C245.711 74.8291 243.952 73.7042 242.099 72.8137C240.245 71.9232 238.345 71.0092 236.422 70.2592L230.628 68.1501C228.637 67.5254 226.699 66.7417 224.834 65.8065V65.3613C226.925 65.5726 228.996 65.9488 231.027 66.4862C233.021 67.0955 234.944 67.9626 236.915 68.8297C238.885 69.6968 240.715 70.6811 242.615 71.5951C244.515 72.509 246.227 73.7511 248.057 74.8291C255.157 79.4844 261.488 85.2167 266.822 91.8198C272.086 98.4382 276.499 105.689 279.958 113.404C280.779 115.325 281.647 117.247 282.304 119.192L284.438 125.098L286.268 131.097C286.76 133.113 287.253 135.128 287.605 137.167L287.323 137.191Z" fill="#FF8C00"/>
<path d="M281.154 136.089C280.591 134.425 280.122 132.715 279.677 131.004L278.222 125.871L276.557 120.786L274.657 115.771C271.972 109.109 268.234 102.922 263.585 97.4443C258.953 91.9489 253.834 86.8819 248.291 82.305C245.548 80.0516 242.639 78.0069 239.589 76.1884C236.516 74.4073 233.42 73.0012 230.206 71.5013V71.056C233.876 71.3184 237.393 72.628 240.339 74.8291C243.375 76.8008 246.26 78.9941 248.971 81.391C254.409 86.1638 259.461 91.3592 264.078 96.9287C268.727 102.5 272.493 108.752 275.243 115.466L277.19 120.505L278.879 125.614C279.951 128.996 280.82 132.439 281.483 135.925L281.154 136.089Z" fill="#FF8C00"/>
<path d="M274 129.34C273.062 126.856 272.452 124.301 271.654 121.794C270.857 119.286 269.848 116.802 268.816 114.365C266.714 109.439 264.138 104.73 261.122 100.303C258.138 95.8776 254.554 91.8868 250.473 88.4451C249.441 87.6249 248.385 86.8515 247.329 86.1016C246.274 85.3516 244.984 84.6954 243.999 84.0158C243.013 83.3362 241.653 82.8909 240.527 82.2113C239.316 81.6788 238.174 81.0021 237.126 80.1958L237.29 79.774C238.637 79.9228 239.961 80.2376 241.231 80.7114C242.45 81.2973 243.576 81.9769 244.796 82.6566C246.016 83.3362 247.142 84.2033 248.127 85.0001C249.112 85.7969 250.238 86.7109 251.247 87.6014C255.23 91.2697 258.751 95.4092 261.732 99.9284C264.729 104.374 267.32 109.08 269.473 113.99C270.528 116.333 271.514 118.935 272.381 121.466C273.302 123.958 273.986 126.532 274.422 129.152L274 129.34Z" fill="#FF8C00"/>
<path d="M265.884 120.27C265.082 118.918 264.399 117.499 263.843 116.029L261.943 111.716L259.879 107.475L257.533 103.327L254.859 99.4363C253.827 98.2411 252.818 97.0927 251.763 95.8975C250.707 94.7023 249.417 93.8352 248.268 92.8509C246.863 92.1216 245.681 91.029 244.843 89.6872L245.078 89.3122C246.657 89.7156 248.104 90.5234 249.276 91.6557L252.631 95.1242L255.68 98.8973L258.26 102.952L260.606 107.147L262.694 111.412C264.084 114.235 265.306 117.138 266.353 120.106L265.884 120.27Z" fill="#FF8C00"/>
<path d="M258.026 116.638C257.492 115.926 257.073 115.135 256.783 114.294L255.68 111.693L252.936 107.006C251.88 105.506 250.754 104.053 249.628 102.623C249.018 101.944 248.385 101.288 247.752 100.631C247.386 100.351 247.083 99.9983 246.861 99.5949C246.639 99.1915 246.503 98.7465 246.462 98.2879L246.813 97.9833C247.281 98.1059 247.716 98.3288 248.089 98.6364C248.461 98.9439 248.763 99.3288 248.971 99.7644L250.567 102.108C251.528 103.702 252.56 105.272 253.569 106.795L256.313 111.623L257.416 114.177C257.845 114.987 258.154 115.856 258.331 116.755L258.026 116.638Z" fill="#FF8C00"/>
<path d="M190.423 73.0715C189.485 72.9309 188.523 72.7668 187.561 72.6731L184.676 72.4856H181.767L178.859 72.6497C177.897 72.6497 176.935 72.9074 175.95 73.0246C175.6 73.0935 175.255 73.1875 174.918 73.3058L176.302 74.5714C177.193 74.337 178.061 74.0089 178.976 73.8449C179.891 73.6808 180.829 73.5168 181.767 73.3996L184.606 73.259L187.444 73.3762C188.382 73.3762 189.321 73.6574 190.259 73.798C191.197 73.9386 192.065 74.2667 192.956 74.5011C193.808 74.8851 194.696 75.1834 195.607 75.3916L195.795 75.0635C194.174 74.0092 192.339 73.3287 190.423 73.0715Z" fill="#FF8C00"/>
<path d="M189.743 78.1101L187.913 77.8289C186.693 77.6414 185.567 77.5242 184.23 77.407C182.893 77.2899 181.744 77.3367 180.477 77.3367H179.375C179.946 77.6493 180.495 78.0017 181.017 78.3913C182.071 78.2184 183.139 78.1399 184.207 78.157C185.417 78.2123 186.623 78.3375 187.819 78.5319L189.602 78.86C190.187 79.0362 190.803 79.0841 191.408 79.0006V78.6257C190.895 78.3406 190.328 78.165 189.743 78.1101Z" fill="#FF8C00"/>
<path d="M188.476 81.391C187.514 81.1801 186.506 80.9926 185.497 80.8286C184.488 80.6645 183.925 80.6411 183.151 80.5942L183.808 81.5082C184.347 81.4731 184.888 81.4731 185.427 81.5082C186.4 81.6197 187.364 81.7998 188.312 82.0472L189.719 82.4456C190.172 82.6605 190.674 82.7495 191.174 82.7034V82.3285C190.335 81.864 189.422 81.5469 188.476 81.391Z" fill="#FF8C00"/>
</svg>
