<svg width="516" height="516" viewBox="0 0 516 516" fill="none" xmlns="http://www.w3.org/2000/svg">
<path fill-rule="evenodd" clip-rule="evenodd" d="M368.859 63.4922H155.455C152.936 63.4922 150.668 63.9961 148.4 65.0039C146.133 66.0117 144.117 67.2715 142.605 69.0352C140.842 70.7988 139.582 72.8145 138.574 74.8301C137.566 77.0977 137.062 79.3652 137.062 81.8848V432.352C137.062 434.871 137.566 437.139 138.574 439.406C139.582 441.674 140.842 443.689 142.605 445.201C144.369 446.965 146.385 448.225 148.4 449.232C150.668 450.24 152.936 450.744 155.455 450.744H368.859C371.379 450.744 373.646 450.24 375.914 449.232C378.182 448.225 380.197 446.965 381.709 445.201C383.473 443.438 384.732 441.422 385.74 439.406C386.748 437.139 387.252 434.871 387.252 432.352V81.8848C387.252 79.3652 386.748 77.0977 385.74 74.8301C384.732 72.5625 383.473 70.5469 381.709 69.0352C379.945 67.2715 377.93 66.0117 375.914 65.0039C373.646 63.9961 371.379 63.4922 368.859 63.4922Z" fill="#15262E"/>
<path fill-rule="evenodd" clip-rule="evenodd" d="M362.812 94.2305H161.25V369.867H362.812V94.2305Z" fill="#051324"/>
<path fill-rule="evenodd" clip-rule="evenodd" d="M360.293 98.5137H164.525V369.867H360.293V98.5137Z" fill="#4FC3F7"/>
<path fill-rule="evenodd" clip-rule="evenodd" d="M331.57 98.5137H331.318H164.525V369.867H208.869L331.57 98.5137Z" fill="#81D4FA"/>
<path fill-rule="evenodd" clip-rule="evenodd" d="M360.293 98.5137H331.57L208.869 369.867H360.293V98.5137Z" fill="#4FC3F7"/>
<path fill-rule="evenodd" clip-rule="evenodd" d="M254.977 394.559C255.984 394.055 256.992 394.055 258 394.055C259.26 394.055 260.268 394.307 261.023 394.559C262.031 395.062 262.787 395.566 263.543 396.322C264.299 397.078 264.803 398.086 265.307 398.842C265.811 399.85 265.811 400.857 265.811 401.865C265.811 402.873 265.559 404.133 265.307 404.889C264.803 405.896 264.299 406.904 263.543 407.66C262.787 408.416 262.031 408.92 261.023 409.424C260.016 409.928 259.008 409.928 258 409.928C256.992 409.928 255.732 409.676 254.977 409.424C253.969 408.92 252.961 408.416 252.457 407.66C251.701 406.904 251.197 405.896 250.693 404.889C250.189 403.881 250.189 402.873 250.189 401.865C250.189 400.605 250.441 399.598 250.693 398.842C251.197 397.834 251.701 397.078 252.457 396.322C253.213 395.566 253.969 395.062 254.977 394.559Z" fill="white"/>
<path fill-rule="evenodd" clip-rule="evenodd" d="M262.031 383.977C258.756 383.977 255.732 384.732 252.709 385.74C249.686 387 247.166 388.764 244.898 391.031C242.631 393.299 240.867 395.818 239.607 398.842C238.348 401.613 237.844 404.889 237.844 408.164C237.844 411.439 238.6 414.463 239.607 417.486C240.867 420.51 242.631 423.029 244.898 425.297C247.166 427.564 249.686 429.328 252.709 430.588C255.48 431.848 258.756 432.352 262.031 432.352C265.307 432.352 268.33 431.596 271.354 430.588C274.377 429.328 276.896 427.564 279.164 425.297C281.432 423.029 283.195 420.51 284.455 417.486C285.715 414.715 286.219 411.439 286.219 408.164C286.219 404.889 285.463 401.865 284.455 398.842C283.195 395.818 281.432 393.299 279.164 391.031C276.896 388.764 274.377 387 271.354 385.74C268.582 384.48 265.307 383.977 262.031 383.977Z" fill="white"/>
<path d="M236.836 77.8535H287.227C289.036 77.8535 290.502 79.2636 290.502 81.0029C290.502 82.7423 289.036 84.1523 287.227 84.1523H236.836C235.027 84.1523 233.561 82.7423 233.561 81.0029C233.561 79.2636 235.027 77.8535 236.836 77.8535Z" fill="#020D1A"/>
<path fill-rule="evenodd" clip-rule="evenodd" d="M262.031 388.512C259.512 388.512 256.992 389.016 254.473 390.023C251.953 391.031 249.938 392.543 248.174 394.307C246.41 396.07 244.898 398.338 243.891 400.605C242.883 402.873 242.379 405.393 242.379 408.164C242.379 410.684 242.883 413.203 243.891 415.723C244.898 417.99 246.41 420.258 248.174 422.021C249.938 423.785 252.205 425.297 254.473 426.305C256.74 427.312 259.26 427.816 262.031 427.816C264.551 427.816 267.07 427.312 269.59 426.305C271.857 425.297 274.125 423.785 275.889 422.021C277.652 420.258 279.164 417.99 280.172 415.723C281.18 413.455 281.684 410.936 281.684 408.164C281.684 405.645 281.18 403.125 280.172 400.605C279.164 398.086 277.652 396.07 275.889 394.307C274.125 392.543 271.857 391.031 269.59 390.023C267.322 389.016 264.803 388.512 262.031 388.512Z" fill="#051324"/>
</svg>
