<svg width="382" height="382" viewBox="0 0 382 382" fill="none" xmlns="http://www.w3.org/2000/svg">
<path d="M191 74.5974C197.619 74.5974 202.938 79.9096 202.938 86.5349C202.938 93.1005 197.619 98.4724 191 98.4724C184.434 98.4724 179.062 93.1005 179.062 86.5349C179.062 79.9096 184.434 74.5974 191 74.5974Z" fill="#656D78"/>
<path d="M286.5 98.4724C306.316 98.4724 322.312 114.469 322.312 134.285H59.6875C59.6875 114.469 75.6838 98.4724 95.5 98.4724H113.233H191H286.5Z" fill="#AAC7ED"/>
<path d="M322.312 176.066V277.535C322.312 303.917 300.944 325.285 274.562 325.285H107.438C81.0556 325.285 59.6875 303.917 59.6875 277.535V176.066V152.191H322.312V176.066Z" fill="#5D9CEC"/>
<path d="M364.088 158.172H17.9241C14.6234 158.172 11.9553 155.504 11.9553 152.203C11.9553 148.902 14.6234 146.234 17.9241 146.234H364.088C367.388 146.234 370.056 148.902 370.056 152.203C370.056 155.504 367.388 158.172 364.088 158.172Z" fill="black"/>
<path d="M17.9121 182.047C8.0398 182.047 0.00585938 174.013 0.00585938 164.141C0.00585938 154.268 8.0398 146.234 17.9121 146.234C21.2128 146.234 23.8809 148.902 23.8809 152.203C23.8809 155.504 21.2128 158.172 17.9121 158.172C14.6174 158.172 11.9434 160.846 11.9434 164.141C11.9434 167.435 14.6174 170.109 17.9121 170.109C21.2128 170.109 23.8809 172.777 23.8809 176.078C23.8809 179.379 21.2128 182.047 17.9121 182.047Z" fill="black"/>
<path d="M364.088 182.047C360.787 182.047 358.119 179.379 358.119 176.078C358.119 172.777 360.787 170.109 364.088 170.109C367.382 170.109 370.056 167.435 370.056 164.141C370.056 160.846 367.382 158.172 364.088 158.172C360.787 158.172 358.119 155.504 358.119 152.203C358.119 148.902 360.787 146.234 364.088 146.234C373.96 146.234 381.994 154.268 381.994 164.141C381.994 174.013 373.96 182.047 364.088 182.047Z" fill="black"/>
<path d="M59.6695 182.047H17.9121C14.6114 182.047 11.9434 179.379 11.9434 176.078C11.9434 172.777 14.6114 170.109 17.9121 170.109H59.6695C62.9702 170.109 65.6382 172.777 65.6382 176.078C65.6382 179.379 62.9702 182.047 59.6695 182.047Z" fill="black"/>
<path d="M59.6875 283.516C56.3868 283.516 53.7188 280.848 53.7188 277.547V152.203C53.7188 148.902 56.3868 146.234 59.6875 146.234C62.9882 146.234 65.6562 148.902 65.6562 152.203V277.547C65.6562 280.848 62.9882 283.516 59.6875 283.516Z" fill="black"/>
<path d="M364.088 182.047H322.33C319.03 182.047 316.362 179.379 316.362 176.078C316.362 172.777 319.03 170.109 322.33 170.109H364.088C367.388 170.109 370.056 172.777 370.056 176.078C370.056 179.379 367.388 182.047 364.088 182.047Z" fill="black"/>
<path d="M322.312 283.516C319.012 283.516 316.344 280.848 316.344 277.547V152.203C316.344 148.902 319.012 146.234 322.312 146.234C325.613 146.234 328.281 148.902 328.281 152.203V277.547C328.281 280.848 325.613 283.516 322.312 283.516Z" fill="black"/>
<path d="M107.432 331.266C77.8146 331.266 53.7188 307.17 53.7188 277.547C53.7188 274.246 56.3868 271.578 59.6875 271.578C62.9882 271.578 65.6562 274.246 65.6562 277.547C65.6562 300.58 84.3981 319.328 107.432 319.328C110.732 319.328 113.4 321.996 113.4 325.297C113.4 328.598 110.732 331.266 107.432 331.266Z" fill="black"/>
<path d="M274.562 331.266C271.262 331.266 268.594 328.598 268.594 325.297C268.594 321.996 271.262 319.328 274.562 319.328C297.596 319.328 316.344 300.58 316.344 277.547C316.344 274.246 319.012 271.578 322.312 271.578C325.613 271.578 328.281 274.246 328.281 277.547C328.281 307.17 304.185 331.266 274.562 331.266Z" fill="black"/>
<path d="M274.562 331.266H107.431C104.131 331.266 101.463 328.598 101.463 325.297C101.463 321.996 104.131 319.328 107.431 319.328H274.562C277.863 319.328 280.531 321.996 280.531 325.297C280.531 328.598 277.863 331.266 274.562 331.266Z" fill="black"/>
<path d="M59.6875 140.242C56.3868 140.242 53.7188 137.574 53.7188 134.273C53.7188 111.24 72.4666 92.4918 95.5 92.4918C98.8007 92.4918 101.469 95.1599 101.469 98.4606C101.469 101.761 98.8007 104.429 95.5 104.429C79.0442 104.429 65.6562 117.817 65.6562 134.273C65.6562 137.574 62.9882 140.242 59.6875 140.242Z" fill="black"/>
<path d="M322.312 140.242C319.012 140.242 316.344 137.574 316.344 134.273C316.344 117.817 302.956 104.429 286.5 104.429C283.199 104.429 280.531 101.761 280.531 98.4606C280.531 95.1599 283.199 92.4918 286.5 92.4918C309.533 92.4918 328.281 111.24 328.281 134.273C328.281 137.574 325.613 140.242 322.312 140.242Z" fill="black"/>
<path d="M286.5 104.441H95.5C92.1993 104.441 89.5312 101.773 89.5312 98.4725C89.5312 95.1718 92.1993 92.5038 95.5 92.5038H286.5C289.801 92.5038 292.469 95.1718 292.469 98.4725C292.469 101.773 289.801 104.441 286.5 104.441Z" fill="black"/>
<path d="M322.312 140.242H59.6875C56.3868 140.242 53.7188 137.574 53.7188 134.273C53.7188 130.972 56.3868 128.304 59.6875 128.304H322.312C325.613 128.304 328.281 130.972 328.281 134.273C328.281 137.574 325.613 140.242 322.312 140.242Z" fill="black"/>
<path d="M322.312 158.172C319.012 158.172 316.344 155.504 316.344 152.203V134.273C316.344 130.972 319.012 128.304 322.312 128.304C325.613 128.304 328.281 130.972 328.281 134.273V152.203C328.281 155.504 325.613 158.172 322.312 158.172Z" fill="black"/>
<path d="M59.6875 158.172C56.3868 158.172 53.7188 155.504 53.7188 152.203V134.273C53.7188 130.972 56.3868 128.304 59.6875 128.304C62.9882 128.304 65.6562 130.972 65.6562 134.273V152.203C65.6562 155.504 62.9882 158.172 59.6875 158.172Z" fill="black"/>
<path d="M191.03 104.441C181.157 104.441 173.124 96.4073 173.124 86.535C173.124 76.6627 181.157 68.6288 191.03 68.6288C200.902 68.6288 208.936 76.6627 208.936 86.535C208.936 96.4073 200.902 104.441 191.03 104.441ZM191.03 80.5663C187.735 80.5663 185.061 83.2403 185.061 86.535C185.061 89.8298 187.735 92.5038 191.03 92.5038C194.325 92.5038 196.999 89.8298 196.999 86.535C196.999 83.2403 194.325 80.5663 191.03 80.5663Z" fill="black"/>
<path d="M113.251 110.434C109.95 110.434 107.282 107.766 107.282 104.465V98.4725C107.282 95.1718 109.95 92.5038 113.251 92.5038C116.552 92.5038 119.22 95.1718 119.22 98.4725V104.465C119.22 107.766 116.546 110.434 113.251 110.434Z" fill="black"/>
<path d="M113.239 86.5469C111.049 86.5469 108.942 85.3412 107.891 83.2462C106.53 80.5245 107.443 77.2595 109.908 75.6181C109.879 75.2003 109.658 74.0364 108.267 71.9533C105.02 67.0828 103.922 62.5287 105.014 58.4222C106.262 53.7188 109.861 51.7193 110.565 51.3611C113.508 49.8988 117.095 51.0806 118.575 54.0292C119.936 56.7509 119.023 60.0158 116.558 61.6572C116.588 62.075 116.808 63.239 118.199 65.322C121.446 70.1925 122.544 74.7467 121.452 78.8532C120.205 83.5566 116.605 85.5561 115.901 85.9142C115.042 86.344 114.134 86.5469 113.239 86.5469Z" fill="black"/>
</svg>
