<svg width="280" height="279" viewBox="0 0 280 279" fill="none" xmlns="http://www.w3.org/2000/svg">
<path d="M14.8974 13.956C26.2197 2.63379 42.2914 -1.65443 59.1223 0.565206C75.4219 2.71445 92.4694 11.0099 106.401 24.941L106.401 24.9416C120.332 38.8726 128.627 55.92 130.777 72.2195C132.996 89.0504 128.708 105.122 117.386 116.444V116.444C106.064 127.766 89.992 132.055 73.1611 129.835C56.8614 127.686 39.814 119.39 25.8827 105.459C11.9516 91.5278 3.65587 74.4805 1.50661 58.1807C-0.713022 41.3496 3.5752 25.2781 14.8974 13.9559L14.8974 13.956Z" fill="#5D9CEC"/>
<path d="M17.1522 16.211C26.1396 7.22368 38.8969 3.81973 52.2565 5.58154C65.1948 7.28762 78.7267 13.8723 89.7847 24.9306L89.7852 24.9309C100.843 35.9891 107.428 49.5207 109.134 62.4587C110.896 75.8188 107.492 88.5756 98.5045 97.5628C89.5172 106.55 76.7599 109.954 63.4002 108.192C50.462 106.486 36.9303 99.9015 25.8721 88.8435C14.8141 77.7852 8.22943 64.2533 6.52307 51.3151C4.76126 37.9554 8.16521 25.198 17.1523 16.2111L17.1522 16.211Z" fill="#AAC7ED"/>
<path d="M120.1 109.982C117.833 107.715 114.158 107.904 111.892 110.171C109.625 112.437 109.625 116.112 111.892 118.378L147.048 153.534C169.083 175.569 151.431 177.055 178.204 203.999L245.979 272.341L245.979 272.341C249.753 276.115 254.723 278.003 259.688 278.003C264.654 278.003 269.623 276.115 273.397 272.341L273.397 272.341L273.398 272.34C277.172 268.566 279.06 263.596 279.06 258.631C279.06 253.666 277.361 248.696 273.587 244.922L204.962 176.296C176.341 147.675 178.419 168.49 153.933 144.004L120.099 109.982L120.1 109.982Z" fill="#5D9CEC"/>
<path fill-rule="evenodd" clip-rule="evenodd" d="M153.601 152.143L149.156 156.637C161.87 172.945 150.483 177.004 174.911 201.588L244.895 272.158C252.647 279.942 265.404 279.962 273.208 272.158C273.276 272.09 273.343 272.021 273.41 271.951L153.601 152.143L153.601 152.143Z" fill="#CA2B03"/>
<path fill-rule="evenodd" clip-rule="evenodd" d="M158.391 147.298L153.696 152.045L153.6 152.142L273.409 271.951L273.423 271.936C280.976 264.144 280.91 251.352 273.403 243.845L202.54 172.982C176.799 147.241 175.106 160.225 158.391 147.298L158.391 147.298Z" fill="#DD2C00"/>
<path d="M23.8032 25.4515C23.2876 25.9671 23.2876 26.8036 23.8032 27.3192C24.3188 27.8348 25.1553 27.8348 25.6709 27.3192C29.1828 23.8073 33.4202 21.3648 38.0845 19.9526C42.9672 18.4741 48.3168 18.1181 53.7949 18.8404C59.1311 19.544 64.6004 21.2774 69.8738 23.9959C74.9559 26.6165 79.8557 30.1571 84.2773 34.5787C84.7929 35.0943 85.6294 35.0943 86.145 34.5787C86.6606 34.0634 86.6606 33.2267 86.145 32.7111C81.5351 28.1011 76.4104 24.4012 71.081 21.6537C65.5401 18.797 59.7758 16.9736 54.1355 16.2298C48.2787 15.4579 42.5537 15.84 37.321 17.4244C32.2462 18.961 27.6321 21.6226 23.8032 25.4515L23.8032 25.4515Z" fill="#CFCFCF"/>
</svg>
