<svg width="345" height="345" viewBox="0 0 345 345" fill="none" xmlns="http://www.w3.org/2000/svg">
<rect x="22.5819" y="67.7454" width="299.836" height="31.3636" rx="15.6818" fill="#49180D"/>
<path d="M303.6 55.2H41.4C34.0801 55.2 27.0599 58.1078 21.8839 63.2838C16.7079 68.4598 13.8 75.48 13.8 82.8C13.8 90.1199 16.7079 97.1401 21.8839 102.316C27.0599 107.492 34.0801 110.4 41.4 110.4V296.7C41.4 298.53 42.127 300.285 43.421 301.579C44.715 302.873 46.4701 303.6 48.3 303.6H62.1C63.7665 303.588 65.3747 302.985 66.6382 301.898C67.9017 300.812 68.7387 299.312 69 297.666L91.7701 138H253.23L276 297.666C276.261 299.312 277.098 300.812 278.362 301.898C279.625 302.985 281.234 303.588 282.9 303.6H296.7C298.53 303.6 300.285 302.873 301.579 301.579C302.873 300.285 303.6 298.53 303.6 296.7V110.4C310.92 110.4 317.94 107.492 323.116 102.316C328.292 97.1401 331.2 90.1199 331.2 82.8C331.2 75.48 328.292 68.4598 323.116 63.2838C317.94 58.1078 310.92 55.2 303.6 55.2ZM56.166 289.8H55.2001V110.4H81.6961L56.166 289.8ZM93.702 124.2L95.634 110.4H249.366L251.298 124.2H93.702ZM289.8 289.8H288.834L263.304 110.4H289.8V289.8ZM303.6 96.6H41.4C37.7401 96.6 34.23 95.146 31.642 92.558C29.054 89.97 27.6 86.4599 27.6 82.8C27.6 79.14 29.054 75.6299 31.642 73.0419C34.23 70.4539 37.7401 69 41.4 69H303.6C307.26 69 310.77 70.4539 313.358 73.0419C315.946 75.6299 317.4 79.14 317.4 82.8C317.4 86.4599 315.946 89.97 313.358 92.558C310.77 95.146 307.26 96.6 303.6 96.6Z" fill="#49180D"/>
</svg>
