<svg width="313" height="284" viewBox="0 0 313 284" fill="none" xmlns="http://www.w3.org/2000/svg">
<g style="mix-blend-mode:multiply" opacity="0.2">
<path d="M312.285 31.5128C312.113 28.0469 310.516 23.2043 303.805 19.7138C292.448 13.8635 265.409 11.307 260.198 10.8399C225.784 7.89019 217.721 13.0768 215.066 14.773C190.916 30.2427 168.084 47.681 146.804 66.9099C140.456 53.5698 135.648 39.5501 132.473 25.1217C130.654 15.2892 120.183 11.7003 116.618 10.3729C106.442 6.80861 89.8984 4.37506 72.3719 3.88344C41.719 2.99851 35.5 8.4064 33.0418 10.4466C31.214 11.9642 29.8243 13.9421 29.0162 16.1762C28.2082 18.4102 28.011 20.8195 28.4451 23.1552C35.205 59.0931 56.984 99.3572 80.3117 137.925C61.3841 161.007 43.2922 185.048 25.7412 208.375C18.3668 218.208 10.6974 228.335 3.12637 238.242C2.14112 239.555 1.42913 241.053 1.03245 242.647C0.635767 244.24 0.562433 245.897 0.81678 247.519C1.07113 249.142 1.648 250.697 2.51332 252.092C3.37864 253.488 4.51487 254.696 5.85489 255.645C14.8025 262.602 44.1771 265.478 52.9035 266.018H54.0588C94.3476 268.968 100.37 261.102 102.951 257.685C110.571 247.73 118.241 237.553 125.64 227.721C128.516 223.911 131.392 220.076 134.292 216.266C153.49 240.479 170.648 258.472 186.478 271.033C194.811 277.768 211.969 281.333 229.274 282.685C248.153 284.061 267.253 282.685 275.389 279.464C283.525 276.244 285.221 270.959 285.59 268.01C285.914 265.515 285.552 262.98 284.543 260.675C283.534 258.371 281.916 256.386 279.863 254.932C253.413 233.94 222.441 196.281 190.043 145.718C227.21 102.037 262.238 71.0642 305.993 43.066C307.988 41.8896 309.628 40.1937 310.736 38.1592C311.844 36.1247 312.38 33.8277 312.285 31.5128Z" fill="black"/>
</g>
<path d="M295.202 16.8378C294.784 13.3964 292.743 8.65222 285.885 5.67788C274.185 0.761622 247.047 0.0979265 241.639 0.0241825C207.225 -0.418281 199.433 5.33375 196.926 7.22651C173.98 24.4332 152.489 43.4989 132.67 64.2306C125.406 51.3599 119.633 37.7028 115.463 23.5239C113.005 13.9618 102.115 11.0366 98.5758 10.0779C88.1041 7.37399 71.438 6.0466 54.0098 6.80862C23.3078 8.18518 17.4083 14.0355 15.196 16.2478C13.4817 17.8871 12.2361 19.9544 11.5879 22.236C10.9397 24.5177 10.9124 26.931 11.5088 29.2268C20.8988 64.5747 45.5293 103.094 71.6346 139.843C54.4277 164.252 38.1549 189.546 22.3245 214.103C15.663 224.476 8.80483 235.144 1.97122 245.567C1.07626 246.95 0.468576 248.499 0.184308 250.122C-0.0999601 251.745 -0.0550116 253.409 0.316481 255.014C0.687974 256.619 1.37843 258.133 2.34679 259.466C3.31516 260.799 4.54166 261.924 5.95339 262.774C15.3926 268.968 44.841 269.558 53.6411 269.583H54.7965C95.1835 269.583 100.616 261.274 102.951 257.71C109.834 247.238 116.717 236.521 123.403 226.172L131.171 214.127C152.089 236.865 170.501 253.457 187.241 264.937C196.041 270.91 213.395 273.245 230.749 273.245C249.677 273.245 268.629 270.492 276.52 266.682C284.41 262.872 285.615 257.464 285.836 254.392C285.977 251.879 285.431 249.376 284.258 247.15C283.084 244.924 281.327 243.06 279.175 241.757C251.25 222.78 217.721 187.457 181.636 139.425C215.484 93.4086 248.202 59.8551 289.769 28.7351C291.658 27.4213 293.159 25.6237 294.115 23.5306C295.071 21.4374 295.446 19.1258 295.202 16.8378Z" fill="white"/>
<path d="M203.685 16.1495C177.183 36.0123 152.675 58.4047 130.507 83.0107C120.502 65.8038 109.736 45.6717 104.623 26.4737C101.304 13.8143 19.596 15.9529 22.2999 26.3754C32.1324 63.4194 60.3518 105.036 85.3018 139.892C59.3193 176.223 35.7459 214.349 11.2875 251.688C6.73993 258.644 86.4079 262.7 93.6348 251.688C105.753 233.178 117.651 214.496 129.745 195.913C148.009 216.659 170.673 240.159 193.509 255.793C211.133 267.764 287.434 261.053 272.906 251.147C234.805 225.238 195.229 176.985 167.821 139.671C200.17 94.4656 233.699 56.7579 283.083 19.8122C293.973 11.6757 215.902 7.02987 203.685 16.1495Z" fill="#EB1D1D"/>
</svg>
