<svg width="510" height="599" viewBox="0 0 510 599" fill="none" xmlns="http://www.w3.org/2000/svg">
<rect x="422.809" y="540.765" width="308.655" height="308.655" rx="10" transform="rotate(-8 422.809 540.765)" fill="#DA0069"/>
<path d="M420.923 640.909C421.463 642.072 422.941 642.434 423.957 641.652L543.761 549.436C544.636 548.762 544.8 547.506 544.126 546.631L134.348 14.2614C132.892 12.3701 129.944 14.1587 130.949 16.3235L420.923 640.909Z" fill="#BDFF00"/>
<rect x="422.809" y="190.956" width="308.655" height="308.655" rx="10" transform="rotate(-8 422.809 190.956)" fill="#DA0069"/>
<rect x="73" y="190.956" width="308.655" height="308.655" rx="10" transform="rotate(-8 73 190.956)" fill="#DA0069"/>
<rect x="73" y="540.765" width="308.655" height="308.655" rx="10" transform="rotate(-8 73 540.765)" fill="#DA0069"/>
</svg>
