<svg width="274" height="274" viewBox="0 0 274 274" fill="none" xmlns="http://www.w3.org/2000/svg">
<rect x="185.576" y="237.348" width="135.472" height="135.472" rx="10" transform="rotate(-8 185.576 237.348)" fill="#DA0069"/>
<path d="M184.157 280.031C184.697 281.193 186.176 281.555 187.191 280.773L237.774 241.838C238.649 241.165 238.813 239.909 238.139 239.034L65.126 14.2614C63.6702 12.3701 60.7221 14.1587 61.7271 16.3235L184.157 280.031Z" fill="#BDFF00"/>
<rect x="185.576" y="83.813" width="135.472" height="135.472" rx="10" transform="rotate(-8 185.576 83.813)" fill="#DA0069"/>
<rect x="32.0406" y="83.813" width="135.472" height="135.472" rx="10" transform="rotate(-8 32.0406 83.813)" fill="#DA0069"/>
<rect x="32.0406" y="237.348" width="135.472" height="135.472" rx="10" transform="rotate(-8 32.0406 237.348)" fill="#DA0069"/>
</svg>
